<svg id="heart-circle_linear" data-name="heart-circle/linear" xmlns="http://www.w3.org/2000/svg" width="25" height="25" viewBox="0 0 25 25">
  <g id="vuesax_linear_heart-circle" data-name="vuesax/linear/heart-circle">
    <g id="heart-circle">
      <path id="Vector" d="M21,10.5A10.5,10.5,0,1,1,10.5,0,10.5,10.5,0,0,1,21,10.5Z" transform="translate(2 2)" fill="none" stroke="#c9cbd5" stroke-linecap="round" stroke-linejoin="round" stroke-width="2"/>
      <path id="Vector-2" data-name="Vector" d="M5.73,9.56a1.269,1.269,0,0,1-.67,0C3.5,9.03,0,6.8,0,3.02A3,3,0,0,1,5.4,1.21a3,3,0,0,1,5.4,1.81C10.8,6.8,7.3,9.03,5.73,9.56Z" transform="translate(7.1 8.438)" fill="none" stroke="#c9cbd5" stroke-linecap="round" stroke-linejoin="round" stroke-width="2"/>
      <path id="Vector-3" data-name="Vector" d="M0,0H25V25H0Z" fill="none" opacity="0"/>
    </g>
  </g>
</svg>
