<svg xmlns="http://www.w3.org/2000/svg" width="26" height="33" viewBox="0 0 26 33">
  <g id="Iconly_Bold_Home" data-name="Iconly Bold Home" transform="translate(-598.974 -597.963)">
    <g id="Home" transform="translate(599.625 598.963)">
      <g id="Home-2">
        <g id="home_linear" data-name="home/linear" transform="translate(-0.651 -1)">
          <g id="vuesax_linear_home" data-name="vuesax/linear/home">
            <g id="home-2-2" data-name="home">
              <path id="Vector" d="M0,3V0" transform="translate(13 16.429)" fill="none" stroke="#e0a387" stroke-linecap="round" stroke-linejoin="round" stroke-width="2"/>
              <path id="Vector-2" data-name="Vector" d="M8.88.7,1.257,6.817A3.72,3.72,0,0,0,.037,10.023L1.5,18.794a3.51,3.51,0,0,0,3.344,2.832h12.32a3.531,3.531,0,0,0,3.344-2.832l1.463-8.771a3.782,3.782,0,0,0-1.221-3.207L13.126.712A3.543,3.543,0,0,0,8.88.7Z" transform="translate(1.997 2.184)" fill="none" stroke="#e0a387" stroke-linecap="round" stroke-linejoin="round" stroke-width="2"/>
              <path id="Vector-3" data-name="Vector" d="M0,0H26V26H0Z" fill="none" opacity="0"/>
            </g>
          </g>
        </g>
      </g>
    </g>
    <rect id="Rectangle_51291" data-name="Rectangle 51291" width="5" height="2" rx="1" transform="translate(609.974 628.963)" fill="#e0a387"/>
  </g>
</svg>
