<svg xmlns="http://www.w3.org/2000/svg" xmlns:xlink="http://www.w3.org/1999/xlink" width="18.147" height="17.014" viewBox="0 0 18.147 17.014">
  <defs>
    <linearGradient id="linear-gradient" x1="0.5" x2="0.5" y2="1" gradientUnits="objectBoundingBox">
      <stop offset="0" stop-color="#935154"/>
      <stop offset="1" stop-color="#7c3b3e"/>
    </linearGradient>
  </defs>
  <g id="box-17" transform="translate(0 -15.99)">
    <g id="Group_94678" data-name="Group 94678" transform="translate(0 15.99)">
      <g id="Group_94677" data-name="Group 94677" transform="translate(0 0)">
        <path id="Path_123734" data-name="Path 123734" d="M18.058,24.734l-1.966-2.9,1.966-2.9a.531.531,0,0,0-.274-.8l-6.415-2.127a.529.529,0,0,0-.611.209L9.073,18.754,7.389,16.227a.529.529,0,0,0-.611-.209L.363,18.145a.531.531,0,0,0-.274.8l1.966,2.9-1.965,2.9a.531.531,0,0,0,.274.8L6.779,27.66a.531.531,0,0,0,.611-.209l1.684-2.526,1.684,2.526a.531.531,0,0,0,.611.209l6.415-2.127a.531.531,0,0,0,.274-.8ZM9.073,23.405l-4.7-1.566,4.7-1.566,4.7,1.566Z" transform="translate(0 -15.99)" fill="url(#linear-gradient)"/>
      </g>
    </g>
    <g id="Group_94680" data-name="Group 94680" transform="translate(2.162 26.841)">
      <g id="Group_94679" data-name="Group 94679">
        <path id="Path_123735" data-name="Path 123735" d="M70.545,323.966a1.594,1.594,0,0,1-1.832-.628l-.8-1.2-.8,1.2a1.593,1.593,0,0,1-1.834.627L61,322.539v3.1a.531.531,0,0,0,.363.5l6.377,2.126a.478.478,0,0,0,.058.016h0a.552.552,0,0,0,.113.012.544.544,0,0,0,.119-.013l.052-.015,6.377-2.126a.531.531,0,0,0,.363-.5v-3.1Z" transform="translate(-61.002 -322.138)" fill="url(#linear-gradient)"/>
      </g>
    </g>
  </g>
</svg>
