<svg xmlns="http://www.w3.org/2000/svg" width="17.023" height="17.72" viewBox="0 0 17.023 17.72">
  <g id="gift-box-with-a-bow" transform="translate(-5.765 0)">
    <g id="Group_94819" data-name="Group 94819" transform="translate(5.765 0)">
      <g id="Group_94815" data-name="Group 94815" transform="translate(0.936 9.839)">
        <path id="Path_123832" data-name="Path 123832" d="M27.849,162.9H22.094a.831.831,0,0,0-.829.829v6.222a.831.831,0,0,0,.829.829h5.851c.2,0,.2-.21.2-.21v-7.389A.279.279,0,0,0,27.849,162.9Z" transform="translate(-21.265 -162.904)" fill="#fff"/>
        <path id="Path_123833" data-name="Path 123833" d="M164.28,162.9h-5.749c-.35,0-.3.365-.3.365v7.313a.2.2,0,0,0,.208.2h5.838a.831.831,0,0,0,.829-.829v-6.222A.831.831,0,0,0,164.28,162.9Z" transform="translate(-149.958 -162.904)" fill="#fff"/>
      </g>
      <g id="Group_94816" data-name="Group 94816" transform="translate(0 4.663)">
        <path id="Path_123834" data-name="Path 123834" d="M13.577,77.476a.274.274,0,0,0-.278-.281h-6.7a.831.831,0,0,0-.829.829v2.588a.831.831,0,0,0,.829.829h6.728a.229.229,0,0,0,.255-.221V77.476Z" transform="translate(-5.765 -77.195)" fill="#fff"/>
        <path id="Path_123835" data-name="Path 123835" d="M165.261,77.195h-6.726a.243.243,0,0,0-.256.244v3.786s0,.216.311.216h6.671a.831.831,0,0,0,.829-.829V78.024A.831.831,0,0,0,165.261,77.195Z" transform="translate(-149.067 -77.195)" fill="#fff"/>
      </g>
      <g id="Group_94817" data-name="Group 94817" transform="translate(2.032 0)">
        <path id="Path_123836" data-name="Path 123836" d="M42.372,4.049a5.418,5.418,0,0,1-1.03-.089,2.437,2.437,0,0,1-1.621-.9,1.867,1.867,0,0,1-.26-1.487A1.807,1.807,0,0,1,41.383,0,3.781,3.781,0,0,1,42.1.076a6.655,6.655,0,0,1,2.235,1c1.266.848,1.329,1.375,1.266,1.7-.093.474-.536.813-1.356,1.036A7.464,7.464,0,0,1,42.372,4.049Zm-.99-2.72c-.4,0-.541.113-.618.5-.062.318.016.43.042.466a1.309,1.309,0,0,0,.79.359,4.159,4.159,0,0,0,.775.065,5.982,5.982,0,0,0,1.572-.2c.027-.008.069-.04.024-.067A5.6,5.6,0,0,0,41.847,1.38,2.471,2.471,0,0,0,41.383,1.329Z" transform="translate(-39.413 0)" fill="#fff"/>
      </g>
      <g id="Group_94818" data-name="Group 94818" transform="translate(8.804 0)">
        <path id="Path_123837" data-name="Path 123837" d="M154.777,4.05h0a7.463,7.463,0,0,1-1.875-.237c-.819-.223-1.263-.562-1.356-1.036-.063-.323,0-.85,1.266-1.7a6.653,6.653,0,0,1,2.235-1A3.78,3.78,0,0,1,155.766,0a1.807,1.807,0,0,1,1.922,1.576,1.867,1.867,0,0,1-.26,1.487,2.437,2.437,0,0,1-1.622.9A5.426,5.426,0,0,1,154.777,4.05Zm-1.585-1.606a.038.038,0,0,0,0,.071,5.964,5.964,0,0,0,1.585.206,4.159,4.159,0,0,0,.775-.065,1.31,1.31,0,0,0,.79-.359c.026-.037.1-.148.042-.466-.076-.389-.215-.5-.618-.5a2.463,2.463,0,0,0-.464.051A5.533,5.533,0,0,0,153.192,2.444Z" transform="translate(-151.53 -0.001)" fill="#fff"/>
      </g>
    </g>
  </g>
</svg>
