<svg id="high-five-2" xmlns="http://www.w3.org/2000/svg" width="17.302" height="17.303" viewBox="0 0 17.302 17.303">
  <path id="Path_123742" data-name="Path 123742" d="M241.507,2.028a.507.507,0,0,0,.507-.507V.507a.507.507,0,1,0-1.014,0V1.521A.507.507,0,0,0,241.507,2.028Zm0,0" transform="translate(-232.856)" fill="#fff"/>
  <path id="Path_123743" data-name="Path 123743" d="M301.865,31.879l1.014-1.014a.507.507,0,0,0-.717-.717l-1.014,1.014a.507.507,0,1,0,.717.717Zm0,0" transform="translate(-290.828 -28.986)" fill="#fff"/>
  <path id="Path_123744" data-name="Path 123744" d="M152.162,31.879a.507.507,0,0,0,.717-.717l-1.014-1.014a.507.507,0,0,0-.717.717Zm0,0" transform="translate(-145.897 -28.986)" fill="#fff"/>
  <path id="Path_123745" data-name="Path 123745" d="M19.055,154.028a2.028,2.028,0,1,0-2.028,2.028A2.03,2.03,0,0,0,19.055,154.028Zm0,0" transform="translate(-14.493 -146.863)" fill="#fff"/>
  <path id="Path_123746" data-name="Path 123746" d="M8.651,121a1.522,1.522,0,0,0-1.521,1.521A3.611,3.611,0,0,1,3.548,126.1H2.535A2.538,2.538,0,0,0,0,128.637v5.069a.507.507,0,0,0,.507.507H4.562a.5.5,0,0,0,.5-.506l0-4.74a6.642,6.642,0,0,0,5.107-6.446A1.522,1.522,0,0,0,8.651,121Zm0,0" transform="translate(0 -116.911)" fill="#fff"/>
  <path id="Path_123747" data-name="Path 123747" d="M381.055,154.028a2.028,2.028,0,1,0-2.028,2.028A2.03,2.03,0,0,0,381.055,154.028Zm0,0" transform="translate(-364.26 -146.863)" fill="#fff"/>
  <path id="Path_123748" data-name="Path 123748" d="M282.864,229.77H281.85a3.63,3.63,0,0,1-2.874-1.477,7.494,7.494,0,0,1-1.5,2.81,6.8,6.8,0,0,0,2.86,1.531l0,4.741a.5.5,0,0,0,.5.506h4.055a.507.507,0,0,0,.507-.507V232.3A2.538,2.538,0,0,0,282.864,229.77Zm0,0" transform="translate(-268.096 -220.578)" fill="#fff"/>
</svg>
