<svg id="language-2" xmlns="http://www.w3.org/2000/svg" width="16.861" height="16.861" viewBox="0 0 16.861 16.861">
  <g id="Group_58863" data-name="Group 58863" transform="translate(3.961 4.512)">
    <g id="Group_58862" data-name="Group 58862">
      <path id="Path_59443" data-name="Path 59443" d="M120.9,137h-.211l-.4,1.976h1Z" transform="translate(-120.293 -137)" fill="#fff"/>
    </g>
  </g>
  <g id="Group_58865" data-name="Group 58865" transform="translate(12.559 8.463)">
    <g id="Group_58864" data-name="Group 58864">
      <path id="Path_59444" data-name="Path 59444" d="M381.374,257a5.163,5.163,0,0,0,.811,1.431,5.213,5.213,0,0,0,.844-1.431Z" transform="translate(-381.374 -257)" fill="#fff"/>
    </g>
  </g>
  <g id="Group_58867" data-name="Group 58867" transform="translate(7.991 2.997)">
    <g id="Group_58866" data-name="Group 58866">
      <path id="Path_59445" data-name="Path 59445" d="M250.051,91h-6.135l1.279,10.264a1.533,1.533,0,0,1-.366,1.124l-2.166,2.476h7.388a1.484,1.484,0,0,0,1.482-1.482V92.515A1.512,1.512,0,0,0,250.051,91Zm0,5.467h-.132a6.268,6.268,0,0,1-1.19,2.164c.363.332.751.6,1.137.909a.494.494,0,1,1-.617.771c-.419-.331-.813-.608-1.206-.969-.393.361-.754.638-1.173.969a.494.494,0,1,1-.617-.771c.386-.3.741-.577,1.1-.909a6.235,6.235,0,0,1-1.157-2.164h-.132a.494.494,0,1,1,0-.988h1.482v-.494a.494.494,0,1,1,.988,0v.494h1.515a.494.494,0,1,1,0,.988Z" transform="translate(-242.663 -91)" fill="#fff"/>
    </g>
  </g>
  <g id="Group_58869" data-name="Group 58869">
    <g id="Group_58868" data-name="Group 58868">
      <path id="Path_59446" data-name="Path 59446" d="M8.041,1.3A1.484,1.484,0,0,0,6.57,0H1.482A1.484,1.484,0,0,0,0,1.482V12.415A1.484,1.484,0,0,0,1.482,13.9h7.79c.144-.165.265-.268.27-.483C9.543,13.36,8.047,1.352,8.041,1.3ZM6.058,9.442a.494.494,0,0,1-.581-.387L5.161,7.476h-1.4L3.448,9.054A.494.494,0,0,1,2.48,8.86l.988-4.94a.494.494,0,0,1,.484-.4H4.973a.494.494,0,0,1,.484.4l.988,4.94A.494.494,0,0,1,6.058,9.442Z" fill="#fff"/>
    </g>
  </g>
  <g id="Group_58871" data-name="Group 58871" transform="translate(5.772 14.885)">
    <g id="Group_58870" data-name="Group 58870">
      <path id="Path_59447" data-name="Path 59447" d="M175.261,452l.085.678a1.494,1.494,0,0,0,.854,1.148L177.858,452Z" transform="translate(-175.261 -452)" fill="#fff"/>
    </g>
  </g>
</svg>
