<svg id="Layer_2" data-name="Layer 2" xmlns="http://www.w3.org/2000/svg" width="24" height="24" viewBox="0 0 24 24">
  <g id="log-out">
    <rect id="Rectangle_3664" data-name="Rectangle 3664" width="24" height="24" transform="translate(24) rotate(90)" fill="#fd5d5d" opacity="0"/>
    <path id="Path_17286" data-name="Path 17286" d="M7,6A1,1,0,0,0,7,4H5A1,1,0,0,0,4,5V19a1,1,0,0,0,1,1H7a1,1,0,0,0,0-2H6V6Z" fill="#fd5d5d"/>
    <path id="Path_17287" data-name="Path 17287" d="M20.82,11.42,18,7.42a1,1,0,1,0-1.63,1.16L18.09,11H10a1,1,0,0,0,0,2h8l-1.8,2.4a1,1,0,0,0,1.6,1.2l3-4a1,1,0,0,0,.02-1.18Z" fill="#fd5d5d"/>
  </g>
</svg>
