<svg xmlns="http://www.w3.org/2000/svg" width="14.3" height="18.871" viewBox="0 0 14.3 18.871">
  <path id="Union_6" data-name="Union 6" d="M2396.073-1043.206a.768.768,0,0,1-.795-.737.767.767,0,0,1,.795-.737h3.177a.767.767,0,0,1,.794.737.767.767,0,0,1-.794.737Zm-3.178-2.949a2.3,2.3,0,0,1-2.383-2.211,2.195,2.195,0,0,1,1.275-1.957.649.649,0,0,0,.314-.588v-4.531a5.311,5.311,0,0,1,4.767-5.107v-.79a.767.767,0,0,1,.794-.737.767.767,0,0,1,.794.737v.79a5.31,5.31,0,0,1,4.766,5.107v4.531a.649.649,0,0,0,.314.588,2.194,2.194,0,0,1,1.275,1.957,2.3,2.3,0,0,1-2.383,2.211Z" transform="translate(-2390.512 1062.077)" fill="#fff"/>
</svg>
