<svg xmlns="http://www.w3.org/2000/svg" width="16.123" height="17.919" viewBox="0 0 16.123 17.919">
  <g id="settings-5" transform="translate(-25.66)">
    <path id="Path_50842" data-name="Path 50842" d="M25.962,13.439a2.24,2.24,0,0,0,3.059.823h0l.332-.192A6.7,6.7,0,0,0,31.482,15.3v.383a2.24,2.24,0,0,0,4.48,0V15.3a6.7,6.7,0,0,0,2.126-1.229l.334.193a2.241,2.241,0,0,0,2.24-3.882h0l-.332-.191a6.794,6.794,0,0,0,0-2.456l.331-.191a2.241,2.241,0,1,0-2.24-3.882l-.332.192a6.7,6.7,0,0,0-2.128-1.225V2.24a2.24,2.24,0,1,0-4.48,0v.383a6.7,6.7,0,0,0-2.126,1.229l-.334-.193a2.241,2.241,0,1,0-2.24,3.882h0l.331.191a6.8,6.8,0,0,0,0,2.456l-.331.191A2.244,2.244,0,0,0,25.962,13.439Zm7.76-7.466a2.986,2.986,0,1,1-2.986,2.986A2.986,2.986,0,0,1,33.722,5.973Z" transform="translate(0)" fill="#282626"/>
  </g>
</svg>
