<svg xmlns="http://www.w3.org/2000/svg" width="18.105" height="15.842" viewBox="0 0 18.105 15.842">
  <g id="store-5" transform="translate(0 -32)">
    <g id="Group_94788" data-name="Group 94788" transform="translate(0 32)">
      <g id="Group_94787" data-name="Group 94787">
        <path id="Path_123749" data-name="Path 123749" d="M18.088,36.955l-1.024-4.1a1.131,1.131,0,0,0-1.1-.857H2.14a1.133,1.133,0,0,0-1.1.857l-1.024,4.1A.554.554,0,0,0,0,37.092a2.764,2.764,0,0,0,2.687,2.829,2.641,2.641,0,0,0,2.122-1.094,2.6,2.6,0,0,0,4.243,0,2.6,2.6,0,0,0,4.243,0,2.639,2.639,0,0,0,2.122,1.094A2.764,2.764,0,0,0,18.1,37.092.554.554,0,0,0,18.088,36.955Z" transform="translate(0 -32)" fill="#fff"/>
      </g>
    </g>
    <g id="Group_94790" data-name="Group 94790" transform="translate(1.132 40.387)">
      <g id="Group_94789" data-name="Group 94789">
        <path id="Path_123750" data-name="Path 123750" d="M46.286,269.849a3.7,3.7,0,0,1-2.122-.665,3.808,3.808,0,0,1-4.243,0,3.808,3.808,0,0,1-4.243,0A3.674,3.674,0,0,1,32,269.5v6.01a1.132,1.132,0,0,0,1.132,1.132h4.526v-4.526h4.526v4.526H46.71a1.132,1.132,0,0,0,1.132-1.132V269.5A3.671,3.671,0,0,1,46.286,269.849Z" transform="translate(-32 -269.184)" fill="#fff"/>
      </g>
    </g>
  </g>
</svg>
