<svg xmlns="http://www.w3.org/2000/svg" width="18.641" height="18.641" viewBox="0 0 18.641 18.641">
  <g id="wallet-15" transform="translate(0 0)">
    <path id="Path_123828" data-name="Path 123828" d="M62.925,2.831a1.822,1.822,0,0,1,1.82-1.82h.63l-.19-.528a.727.727,0,0,0-.934-.438L57.885,2.361a.728.728,0,0,0-.435.935l.336.918h5.138Z" transform="translate(-55.316)" fill="#fff"/>
    <path id="Path_123829" data-name="Path 123829" d="M239.728,57.745a.728.728,0,0,0-.728.728v1.384h6.371V58.473a.728.728,0,0,0-.728-.728Z" transform="translate(-230.298 -55.643)" fill="#fff"/>
    <path id="Path_123830" data-name="Path 123830" d="M17,155.157H14.454a2.731,2.731,0,1,1,0-5.461H17V147.2a1.456,1.456,0,0,0-1.456-1.456H1.456A1.456,1.456,0,0,0,0,147.2v10.422a1.456,1.456,0,0,0,1.456,1.456h14.09A1.456,1.456,0,0,0,17,157.623Z" transform="translate(0 -140.439)" fill="#fff"/>
    <path id="Path_123831" data-name="Path 123831" d="M357.279,284.245h-3.641a1.638,1.638,0,0,0,0,3.277h3.641a.547.547,0,0,0,.546-.546v-2.185A.547.547,0,0,0,357.279,284.245Zm-3.641,2.185a.546.546,0,1,1,.546-.546A.546.546,0,0,1,353.638,286.43Z" transform="translate(-339.184 -273.896)" fill="#fff"/>
  </g>
</svg>
