<svg xmlns="http://www.w3.org/2000/svg" width="38.224" height="36.23" viewBox="0 0 38.224 36.23">
  <g id="accessory-2" transform="translate(-3.25 -4.25)">
    <path id="Path_107772" data-name="Path 107772" d="M48,40.659v9.307a1.33,1.33,0,0,0,1.33,1.33h5.318a1.33,1.33,0,0,0,1.33-1.33V40.659L51.989,38Zm4.487.763a1.33,1.33,0,1,1-1,0l.5-.763Z" transform="translate(-15.002 -11.314)" fill="#57e2ac"/>
    <path id="Path_107773" data-name="Path 107773" d="M41.227,25c0,4.406-8.333,7.977-18.613,7.977S4,29.406,4,25Z" transform="translate(-0.251 -6.956)" fill="#39c991" opacity="0.995"/>
    <path id="Path_107774" data-name="Path 107774" d="M24.619,32.97c9.971-.15,17.949-3.66,17.949-7.97H8C8,29.31,14.648,32.82,24.619,32.97Z" transform="translate(-1.592 -6.956)" fill="#57e2ac"/>
    <path id="Path_107775" data-name="Path 107775" d="M26.971,5a9.971,9.971,0,0,1,9.971,9.971V18.3H17V14.971A9.971,9.971,0,0,1,26.971,5Z" transform="translate(-4.609 -0.251)" fill="#39c991" opacity="0.995"/>
    <path id="Path_107776" data-name="Path 107776" d="M28.977,5.05C23.781,5.394,21,9.706,21,14.988v3.324H38.284V14.988A9.964,9.964,0,0,0,28.977,5.05Z" transform="translate(-5.95 -0.268)" fill="#57e2ac"/>
    <path id="Path_107777" data-name="Path 107777" d="M15,21H37.6v2.659H15Z" transform="translate(-3.939 -5.615)" fill="#fff096"/>
    <path id="Path_107778" data-name="Path 107778" d="M27.659,42h3.989a3.989,3.989,0,0,1,3.989,3.989v1.33a3.989,3.989,0,0,1-3.989,3.989A6.648,6.648,0,0,1,25,44.659,2.659,2.659,0,0,1,27.659,42Z" transform="translate(-7.291 -12.655)" fill="#414650"/>
    <path id="Path_107779" data-name="Path 107779" d="M6.648,0a3.989,3.989,0,0,1,3.989,3.989v1.33A3.989,3.989,0,0,1,6.648,9.307H2.659A2.659,2.659,0,0,1,0,6.648,6.648,6.648,0,0,1,6.648,0Z" transform="translate(15.05 38.652) rotate(180)" fill="#414650"/>
    <path id="Path_107780" data-name="Path 107780" d="M17,23H38.272v1.33H17Z" transform="translate(-4.609 -6.286)" fill="#f6e05c"/>
    <path id="Path_107781" data-name="Path 107781" d="M37.337,26.32a7.657,7.657,0,0,0-.946-2.468c3.166-1.506,5.083-3.539,5.083-5.808a.5.5,0,0,0-.5-.5H34.162v-2.16a.5.5,0,0,0-.5-.5h-.831V14.72a10.47,10.47,0,0,0-20.94,0v.166h-.831a.5.5,0,0,0-.5.5v2.16H3.749a.5.5,0,0,0-.5.5c0,4.753,8.4,8.476,19.112,8.476a35.2,35.2,0,0,0,13.11-2.259,6.66,6.66,0,0,1,.875,2.253L32.722,28.93a.5.5,0,0,0-.222.415v9.307a1.83,1.83,0,0,0,1.828,1.828h5.318a1.83,1.83,0,0,0,1.828-1.828V29.345a.5.5,0,0,0-.222-.415Zm.48,5.019a.831.831,0,1,1-.831-.831.831.831,0,0,1,.831.831ZM12.889,14.72a9.473,9.473,0,0,1,18.946,0v.166H12.889Zm-1.33,1.163h21.6v1.662H11.56ZM35.8,23a7.726,7.726,0,0,0-2.576-2.078.5.5,0,0,0-.447.892,6.73,6.73,0,0,1,2.056,1.6,34.889,34.889,0,0,1-12.469,2.112c-9.414,0-17.427-3.148-18.073-6.98H40.435C40.15,20.231,38.433,21.787,35.8,23Zm4.68,15.652a.832.832,0,0,1-.831.831H34.328a.832.832,0,0,1-.831-.831v-9.04l2.978-1.985c0,.066.013.129.013.195v1.768a1.828,1.828,0,1,0,1,0V27.821c0-.07-.005-.139-.007-.209l3,2Z" transform="translate(0)"/>
    <path id="Path_107782" data-name="Path 107782" d="M24.692,41.25H20.7a3.153,3.153,0,0,0-3.033,2.327H15.758a3.153,3.153,0,0,0-3.033-2.327H8.737A4.492,4.492,0,0,0,4.25,45.737v1.33a4.492,4.492,0,0,0,4.487,4.487,7.15,7.15,0,0,0,7.138-6.98h1.679a7.15,7.15,0,0,0,7.138,6.98,4.492,4.492,0,0,0,4.487-4.487v-1.33A4.492,4.492,0,0,0,24.692,41.25ZM8.737,50.557a3.494,3.494,0,0,1-3.49-3.49v-1.33a3.494,3.494,0,0,1,3.49-3.49h3.989a2.163,2.163,0,0,1,2.16,2.16,6.156,6.156,0,0,1-6.149,6.149Zm19.444-3.49a3.494,3.494,0,0,1-3.49,3.49,6.156,6.156,0,0,1-6.149-6.149,2.163,2.163,0,0,1,2.16-2.16h3.989a3.494,3.494,0,0,1,3.49,3.49Z" transform="translate(-0.335 -12.404)"/>
  </g>
</svg>
