<svg xmlns="http://www.w3.org/2000/svg" width="25.715" height="34.288" viewBox="0 0 25.715 34.288">
  <g id="Layer_32" data-name="Layer 32" transform="translate(-8.002)">
    <path id="Path_123874" data-name="Path 123874" d="M13,1H33.359V4.215H13Z" transform="translate(-2.32 -0.464)" fill="#f6b1ae"/>
    <path id="Path_123875" data-name="Path 123875" d="M14.607,1.536V1H13V4.215H33.359V2.607H15.679a1.072,1.072,0,0,1-1.072-1.072Z" transform="translate(-2.32 -0.464)" fill="#e58989"/>
    <path id="Path_123876" data-name="Path 123876" d="M31.5,7H11.143L9,14.5,12.215,37h6.429l.767-21.468A1.072,1.072,0,0,1,20.482,14.5h1.682a1.072,1.072,0,0,1,1.072,1.033L24,37H30.43l3.215-22.5Z" transform="translate(-0.463 -3.25)" fill="#f6b1ae"/>
    <g id="Group_94861" data-name="Group 94861" transform="translate(8.537 0.536)">
      <path id="Path_123877" data-name="Path 123877" d="M35.824,35.453l-.586-16.42A1.072,1.072,0,0,0,34.166,18H32.484a1.072,1.072,0,0,0-1.072,1.033l-.02.574h1.166a1.072,1.072,0,0,1,1.072,1.033L34.4,42.109h6.429l.23-1.607a5.235,5.235,0,0,1-5.232-5.049Z" transform="translate(-19.396 -8.892)" fill="#e58989"/>
      <path id="Path_123878" data-name="Path 123878" d="M13.164,30.795,10.672,13.345a2.143,2.143,0,0,1,.061-.891L12.291,7H11.143L9,14.5,12.215,37h6.429l.057-1.607h-.233a5.358,5.358,0,0,1-5.3-4.6Z" transform="translate(-9 -3.785)" fill="#e58989"/>
      <path id="Path_123879" data-name="Path 123879" d="M19,1h2.143V4.215H19Z" transform="translate(-13.642 -1)" fill="#e58989"/>
    </g>
    <path id="Path_123880" data-name="Path 123880" d="M21,1h1.072V4.215H21Z" transform="translate(-6.034 -0.464)" fill="#ffd9d9"/>
    <path id="Path_123881" data-name="Path 123881" d="M41,1h2.143V4.215H41Z" transform="translate(-15.319 -0.464)" fill="#e58989"/>
    <path id="Path_123882" data-name="Path 123882" d="M43,1h1.072V4.215H43Z" transform="translate(-16.248 -0.464)" fill="#ffd9d9"/>
    <path id="Path_123883" data-name="Path 123883" d="M33.7,11.1,31.574,3.675V.536A.536.536,0,0,0,31.038,0H10.68a.536.536,0,0,0-.536.536V3.75a.536.536,0,0,0,.536.536h2.6l-.984,6.889a.536.536,0,0,0,1.061.152l1.006-7.041h4.893v3.75a1.607,1.607,0,0,0,1.607,1.607H21.93a.536.536,0,0,0,0-1.072H20.859a.536.536,0,0,1-.536-.536V4.286h7.036l1.006,7.041a.536.536,0,1,0,1.061-.152l-.984-6.889H28.9a.536.536,0,1,0,0-1.072H28.36V1.072H30.5V3.75a.5.5,0,0,0,.015.073.429.429,0,0,0,.006.074l2.111,7.393L29.5,33.217H24.055L23.3,12.265a1.591,1.591,0,0,0-.1-.478h.865a.536.536,0,0,0,0-1.072H17.644a.536.536,0,0,0,0,1.072h.865a1.591,1.591,0,0,0-.1.478l-.748,20.952H12.216L9.083,11.288l1.5-5.248a.536.536,0,1,0-1.03-.295L8.023,11.1a.536.536,0,0,0-.016.223l3.215,22.5a.536.536,0,0,0,.529.46H18.18a.536.536,0,0,0,.536-.516L19.483,12.3a.536.536,0,0,1,.536-.516H21.7a.536.536,0,0,1,.536.516L23,33.772a.536.536,0,0,0,.536.516h6.429a.536.536,0,0,0,.53-.46l3.214-22.5A.536.536,0,0,0,33.7,11.1ZM16.573,3.215V1.072h8.572V3.215ZM11.215,1.072h2.143V3.215H11.215ZM14.43,3.215V1.072H15.5V3.215Zm12.858,0H26.216V1.072h1.072Z"/>
  </g>
</svg>
