<svg xmlns="http://www.w3.org/2000/svg" width="38.218" height="42.616" viewBox="0 0 38.218 42.616">
  <g id="g7233" transform="translate(-2.582 682.473)">
    <g id="g7235" transform="translate(0 -682.665)">
      <g id="Group_86047" data-name="Group 86047">
        <g id="g7243" transform="translate(15.646 0.842)">
          <path id="path7245" d="M-.006-64.854A6.035,6.035,0,0,1,1.9-69.237,10.293,10.293,0,0,1,3.26-64.854" transform="translate(0.007 69.237)" fill="none" stroke="#000" stroke-linecap="round" stroke-linejoin="round" stroke-miterlimit="10" stroke-width="1.3"/>
        </g>
        <g id="g7247" transform="translate(3.232 4.949)">
          <path id="path7249" d="M-546.28-435.714a27.759,27.759,0,0,1-4.814,2.953h-27.289a27.759,27.759,0,0,1-4.814-2.953c7.015-7.013,12.508-17.058,12.508-17.058v-2.953c0-2.07-1.466-7.591-1.466-7.591.575-1.618,1.96-1.961,3.379-1.813a12.143,12.143,0,0,1,4.039,1.383s6.038-3.45,7.418.43c0,0-1.467,5.522-1.467,7.591v2.953s5.493,10.045,12.508,17.058" transform="translate(583.199 465.161)" fill="#ac65ff"/>
        </g>
        <g id="g7251" transform="translate(3.232 4.949)">
          <path id="path7253" d="M-240.181-139.619c-.412,1.719-1.485,5.349-1.485,5.349l-.84,1.67-1.591,15.945h-7.5a27.762,27.762,0,0,1-4.814-2.953c7.015-7.013,12.508-17.058,12.508-17.058v-2.952c0-2.07-1.466-7.591-1.466-7.591.575-1.618,1.96-1.962,3.379-1.813l0,0c-3.059,4.77,2.4,6.929,1.808,9.4" transform="translate(256.413 149.055)" fill="#b881f8"/>
        </g>
        <g id="g7255" transform="translate(15.74 14.384)">
          <path id="path7257" d="M-176.132-43.691h-11.9v-2.953h11.9" transform="translate(188.036 46.644)" fill="#fcdd5e"/>
        </g>
        <g id="g7259" transform="translate(15.74 14.384)" opacity="0.393">
          <path id="path7261" d="M-53.48-43.691h-3.614v-2.953h3.614" transform="translate(57.095 46.644)" fill="#fff"/>
        </g>
        <g id="g7263" transform="translate(27.643 11.586)">
          <path id="path7265" d="M-5.37,0a17.176,17.176,0,0,0-.363,2.8V5.751S-.24,15.8,6.775,22.809A27.761,27.761,0,0,1,1.96,25.763" transform="translate(5.733)" fill="none" stroke="#000" stroke-linecap="round" stroke-linejoin="round" stroke-miterlimit="10" stroke-width="1.3"/>
        </g>
        <g id="g7267" transform="translate(3.232 4.949)">
          <path id="path7269" d="M-71.239-479.409a27.763,27.763,0,0,1-4.814-2.953c7.015-7.013,12.508-17.058,12.508-17.058v-2.952c0-2.07-1.466-7.591-1.466-7.591,1.38-3.881,7.417-.43,7.417-.43s6.038-3.45,7.418.43c0,0-.268,1.01-.576,2.329" transform="translate(76.053 511.808)" fill="none" stroke="#000" stroke-linecap="round" stroke-linejoin="round" stroke-miterlimit="10" stroke-width="1.3"/>
        </g>
        <g id="g7271" transform="translate(7.575 21.404)">
          <path id="path7273" d="M-141.538,0s-4.2,9.748-9.565,16.555a26.382,26.382,0,0,0,14.117,4.2,26.383,26.383,0,0,0,14.117-4.2C-128.234,9.748-132.435,0-132.435,0" transform="translate(151.104)" fill="#ac65ff"/>
        </g>
        <g id="g7275" transform="translate(13.058 21.403)">
          <path id="path7277" d="M-195.107,0s4.2,9.749,9.566,16.556a26.383,26.383,0,0,1-14.117,4.2,26.036,26.036,0,0,1-8.634-1.514" transform="translate(208.293)" fill="none" stroke="#000" stroke-linecap="round" stroke-linejoin="round" stroke-miterlimit="10" stroke-width="1.3"/>
        </g>
        <g id="g7279" transform="translate(7.574 21.403)">
          <path id="path7281" d="M-46.4-270.642a20.851,20.851,0,0,1-3.136-1.734c5.365-6.807,9.566-16.556,9.566-16.556" transform="translate(49.533 288.933)" fill="none" stroke="#000" stroke-linecap="round" stroke-linejoin="round" stroke-miterlimit="10" stroke-width="1.3"/>
        </g>
        <g id="g7283" transform="translate(24.471 0.842)">
          <path id="path7285" d="M-48.327-64.854a6.035,6.035,0,0,0-1.905-4.383,10.293,10.293,0,0,0-1.361,4.383" transform="translate(51.593 69.237)" fill="none" stroke="#000" stroke-linecap="round" stroke-linejoin="round" stroke-miterlimit="10" stroke-width="1.3"/>
        </g>
        <g id="g7287" transform="translate(15.74 14.384)">
          <path id="path7289" d="M0,0H11.9" fill="none" stroke="#000" stroke-linecap="round" stroke-linejoin="round" stroke-miterlimit="10" stroke-width="1.3"/>
        </g>
        <g id="g7291" transform="translate(15.74 17.337)">
          <path id="path7293" d="M0,0H11.9" transform="translate(0 0)" fill="none" stroke="#000" stroke-linecap="round" stroke-linejoin="round" stroke-miterlimit="10" stroke-width="1.3"/>
        </g>
      </g>
    </g>
  </g>
</svg>
