<svg xmlns="http://www.w3.org/2000/svg" width="34.809" height="34.642" viewBox="0 0 34.809 34.642">
  <g id="flowers" transform="translate(0 -0.153)">
    <g id="Group_86040" data-name="Group 86040" transform="translate(7.907 8.829)">
      <path id="Path_107761" data-name="Path 107761" d="M23.61,42.071a.669.669,0,0,1-.669-.669c0-18.114-6.17-22.983-8.061-24.043a.669.669,0,0,1,.655-1.168c2.629,1.475,8.745,6.883,8.745,25.211A.669.669,0,0,1,23.61,42.071Z" transform="translate(-14.537 -16.104)" fill="#0e0e0f"/>
      <path id="Path_107762" data-name="Path 107762" d="M30.563,44.935a.669.669,0,0,1-.669-.669c0-11.559,7.486-14.735,9.781-15.433a.67.67,0,0,1,.39,1.281c-2.655.807-8.831,3.8-8.831,14.152a.669.669,0,0,1-.669.669Z" transform="translate(-21.542 -21.896)" fill="#0e0e0f"/>
    </g>
    <g id="Group_86042" data-name="Group 86042" transform="translate(4.633 23.336)">
      <path id="Path_107763" data-name="Path 107763" d="M17.345,44.64c3.991,1.877,4.031,6.563,4.031,6.563s-3.636,2.957-7.626,1.08a7.476,7.476,0,0,1-3.994-6.055.847.847,0,0,1,.378-.8A7.476,7.476,0,0,1,17.345,44.64Z" transform="translate(-9.081 -43.343)" fill="#f2a987"/>
      <g id="Group_86041" data-name="Group 86041">
        <path id="Path_107764" data-name="Path 107764" d="M15.969,53.009a7.154,7.154,0,0,1-3.066-.685,8.106,8.106,0,0,1-4.375-6.587A1.516,1.516,0,0,1,9.2,44.3a8.106,8.106,0,0,1,7.864-.83c4.322,2.033,4.413,6.954,4.415,7.164a.668.668,0,0,1-.662.673h-.007a.67.67,0,0,1-.669-.662c0-.174-.1-4.294-3.647-5.965a6.8,6.8,0,0,0-6.558.739.175.175,0,0,0-.08.171,6.8,6.8,0,0,0,3.614,5.523,6.1,6.1,0,0,0,4.8.139.67.67,0,1,1,.452,1.26,8.14,8.14,0,0,1-2.754.5Z" transform="translate(-8.519 -42.778)" fill="#0e0e0f"/>
        <path id="Path_107765" data-name="Path 107765" d="M26.083,55.227a.672.672,0,0,1-.285-.064l-5.342-2.52a.669.669,0,0,1,.571-1.211l5.342,2.52a.669.669,0,0,1-.286,1.275Z" transform="translate(-13.789 -46.696)" fill="#0e0e0f"/>
      </g>
    </g>
    <g id="Group_86044" data-name="Group 86044" transform="translate(17.659 7.066)">
      <path id="Path_107766" data-name="Path 107766" d="M49.155,27.037a.3.3,0,0,0-.041.068.3.3,0,0,0-.041.068,2.933,2.933,0,0,1-5.011-.149,2.928,2.928,0,0,1-2.377,4.414h-.163a2.928,2.928,0,0,1-2.377-4.414,2.933,2.933,0,0,1-5.011.149,84.425,84.425,0,0,1-.081-.136,2.925,2.925,0,0,1,2.607-4.278,2.912,2.912,0,0,1-2.607-4.264c.014-.027.027-.041.041-.068s.027-.041.041-.068a2.922,2.922,0,0,1,5.011.149,2.928,2.928,0,0,1,2.377-4.414h.163a2.928,2.928,0,0,1,2.377,4.414,2.922,2.922,0,0,1,5.011-.149c.014.027.027.041.041.068s.027.041.041.068a2.912,2.912,0,0,1-2.607,4.264,2.925,2.925,0,0,1,2.607,4.278Z" transform="translate(-33.029 -13.425)" fill="#f2a987"/>
      <circle id="Ellipse_1914" data-name="Ellipse 1914" cx="2.618" cy="2.618" r="2.618" transform="translate(5.957 6.72)" fill="#fcdd5e"/>
      <g id="Group_86043" data-name="Group 86043">
        <path id="Path_107767" data-name="Path 107767" d="M45.477,30.565a3.288,3.288,0,1,1,3.288-3.288A3.292,3.292,0,0,1,45.477,30.565Zm0-5.236a1.949,1.949,0,1,0,1.949,1.949A1.951,1.951,0,0,0,45.477,25.328Z" transform="translate(-36.902 -17.938)" fill="#0e0e0f"/>
        <path id="Path_107768" data-name="Path 107768" d="M40.961,31.545a3.42,3.42,0,0,1-2.948-1.755,3.693,3.693,0,0,1-.475-1.518A3.693,3.693,0,0,1,36,28.619h-.025A3.436,3.436,0,0,1,33,26.956l-.069-.122a3.446,3.446,0,0,1,.022-3.477A3.68,3.68,0,0,1,34.012,22.2a3.665,3.665,0,0,1-1.054-1.145,3.439,3.439,0,0,1-.049-3.452c.008-.015.08-.133.09-.148A3.431,3.431,0,0,1,35.98,15.78H36a3.682,3.682,0,0,1,1.535.347,3.7,3.7,0,0,1,.473-1.509,3.418,3.418,0,0,1,2.941-1.754h.171a3.421,3.421,0,0,1,2.95,1.755,3.719,3.719,0,0,1,.473,1.509A3.7,3.7,0,0,1,46.1,15.78h.014a3.412,3.412,0,0,1,2.977,1.678c.01.017.061.1.069.12a3.443,3.443,0,0,1-.029,3.481A3.668,3.668,0,0,1,48.075,22.2a3.674,3.674,0,0,1,1.058,1.155,3.443,3.443,0,0,1,.046,3.445c-.012.02-.024.039-.037.058a.572.572,0,0,1-.033.052,3.433,3.433,0,0,1-3,1.708H46.1a3.712,3.712,0,0,1-1.548-.346,3.733,3.733,0,0,1-.475,1.517,3.421,3.421,0,0,1-2.942,1.756h-.171Zm-2.376-5.753a.67.67,0,0,1,.582,1,2.354,2.354,0,0,0,.008,2.331,2.061,2.061,0,0,0,1.794,1.081h.156a2.063,2.063,0,0,0,1.787-1.081,2.357,2.357,0,0,0,.008-2.331.67.67,0,0,1,1.16-.669A2.356,2.356,0,0,0,46.1,27.28h.009a2.064,2.064,0,0,0,1.824-1.011c.007-.012.017-.027.029-.046a.893.893,0,0,1,.064-.111,2.091,2.091,0,0,0-.054-2.082,2.306,2.306,0,0,0-1.993-1.164.669.669,0,0,1,0-1.339,2.286,2.286,0,0,0,1.986-1.147,2.084,2.084,0,0,0,.037-2.121l-.075-.122A2.157,2.157,0,0,0,46.1,17.119a2.35,2.35,0,0,0-2.021,1.164.67.67,0,0,1-1.161-.667,2.357,2.357,0,0,0-.008-2.331,2.067,2.067,0,0,0-1.8-1.081h-.156a2.06,2.06,0,0,0-1.786,1.08,2.355,2.355,0,0,0-.008,2.332.67.67,0,0,1-1.161.667A2.316,2.316,0,0,0,36,17.119h-.017a2.075,2.075,0,0,0-1.829,1.022l-.081.133a2.081,2.081,0,0,0,.044,2.106A2.285,2.285,0,0,0,36.1,21.528a.669.669,0,0,1,0,1.339,2.308,2.308,0,0,0-1.994,1.164,2.089,2.089,0,0,0-.035,2.114l.018.027a1.055,1.055,0,0,1,.071.12,2.031,2.031,0,0,0,1.83.987,2.326,2.326,0,0,0,2.014-1.156.668.668,0,0,1,.578-.332Zm10.009.683h.013Z" transform="translate(-32.468 -12.864)" fill="#0e0e0f"/>
      </g>
    </g>
    <g id="Group_86046" data-name="Group 86046" transform="translate(0 0.153)">
      <path id="Path_107769" data-name="Path 107769" d="M16.688,14.338a.3.3,0,0,0-.041.068.3.3,0,0,0-.041.068,2.933,2.933,0,0,1-5.011-.149,2.928,2.928,0,0,1-2.377,4.414H9.055a2.928,2.928,0,0,1-2.377-4.414,2.933,2.933,0,0,1-5.011.149.3.3,0,0,0-.041-.068.3.3,0,0,0-.041-.068,2.925,2.925,0,0,1,2.607-4.278A2.912,2.912,0,0,1,1.586,5.8c.014-.027.027-.041.041-.068s.027-.041.041-.068a2.922,2.922,0,0,1,5.011.149A2.928,2.928,0,0,1,9.055,1.4h.163A2.928,2.928,0,0,1,11.595,5.81a2.922,2.922,0,0,1,5.011-.149c.014.027.027.041.041.068s.027.041.041.068a2.912,2.912,0,0,1-2.607,4.264A2.925,2.925,0,0,1,16.688,14.338Z" transform="translate(-0.561 -0.72)" fill="#f2a987"/>
      <circle id="Ellipse_1915" data-name="Ellipse 1915" cx="2.618" cy="2.618" r="2.618" transform="translate(5.958 6.727)" fill="#fcdd5e"/>
      <g id="Group_86045" data-name="Group 86045">
        <path id="Path_107770" data-name="Path 107770" d="M13.011,17.867A3.288,3.288,0,1,1,16.3,14.579a3.291,3.291,0,0,1-3.288,3.288Zm0-5.237a1.949,1.949,0,1,0,1.949,1.949A1.951,1.951,0,0,0,13.011,12.63Z" transform="translate(-4.435 -5.233)" fill="#0e0e0f"/>
        <path id="Path_107771" data-name="Path 107771" d="M15.6,9.5A3.586,3.586,0,0,0,16.661,8.36a3.421,3.421,0,0,0,.067-3.414.562.562,0,0,0-.107-.187,3.4,3.4,0,0,0-2.972-1.687h-.013a3.816,3.816,0,0,0-1.553.348,3.592,3.592,0,0,0-.482-1.5A3.443,3.443,0,0,0,8.654.153H8.48A3.438,3.438,0,0,0,5.548,1.92a3.793,3.793,0,0,0-.482,1.5A3.916,3.916,0,0,0,3.54,3.072H3.513A3.432,3.432,0,0,0,.528,4.759c0,.013-.08.12-.08.147A3.429,3.429,0,0,0,.487,8.36,3.586,3.586,0,0,0,1.545,9.5,3.633,3.633,0,0,0,.487,10.65,3.461,3.461,0,0,0,.447,14.1c0,.013.013.027.027.04.027.054.013.067.054.107a3.6,3.6,0,0,0,3.012,1.66,3.5,3.5,0,0,0,1.526-.348,3.915,3.915,0,0,0,.482,1.526,3.4,3.4,0,0,0,2.946,1.754h.174A3.4,3.4,0,0,0,11.6,17.09a3.706,3.706,0,0,0,.482-1.526,3.611,3.611,0,0,0,1.553.348,3.508,3.508,0,0,0,3.012-1.7.07.07,0,0,1,.027-.054.186.186,0,0,1,.04-.054,3.461,3.461,0,0,0-.054-3.454A3.633,3.633,0,0,0,15.6,9.5Zm-.04,3.909c-.027.054-.054.094-.067.121s-.027.027-.027.04a2.061,2.061,0,0,1-1.821,1h-.013a2.349,2.349,0,0,1-2.022-1.151.661.661,0,0,0-.91-.241.677.677,0,0,0-.254.91,2.335,2.335,0,0,1,0,2.33A2.07,2.07,0,0,1,8.654,17.5H8.507A2.054,2.054,0,0,1,6.713,16.42a2.335,2.335,0,0,1-.013-2.33.672.672,0,0,0-.241-.91.636.636,0,0,0-.335-.094.685.685,0,0,0-.589.335,2.283,2.283,0,0,1-2.008,1.151A2.139,2.139,0,0,1,1.706,13.6c-.027-.027-.04-.08-.08-.134a.013.013,0,0,1-.013-.013,2.1,2.1,0,0,1,.027-2.115,2.306,2.306,0,0,1,1.995-1.165A.68.68,0,0,0,4.3,9.5a.671.671,0,0,0-.669-.669A2.294,2.294,0,0,1,1.639,7.677a2.1,2.1,0,0,1-.027-2.115.97.97,0,0,1,.067-.12A2.079,2.079,0,0,1,3.513,4.411h.013A2.323,2.323,0,0,1,5.535,5.575.672.672,0,1,0,6.7,4.906a2.335,2.335,0,0,1,.013-2.33A2.076,2.076,0,0,1,8.494,1.492h.161a2.1,2.1,0,0,1,1.794,1.084,2.335,2.335,0,0,1,0,2.33.693.693,0,0,0,.254.924.677.677,0,0,0,.91-.254,2.391,2.391,0,0,1,2.022-1.165h.013a2.065,2.065,0,0,1,1.794.964c.027.054.04.094.094.187a2.1,2.1,0,0,1-.027,2.115,2.294,2.294,0,0,1-1.995,1.151.671.671,0,0,0-.669.669.68.68,0,0,0,.669.669,2.306,2.306,0,0,1,1.995,1.165,2.089,2.089,0,0,1,.054,2.075Z" transform="translate(0 -0.153)" fill="#0e0e0f"/>
      </g>
    </g>
  </g>
</svg>
