<svg xmlns="http://www.w3.org/2000/svg" width="36.088" height="35.746" viewBox="0 0 36.088 35.746">
  <g id="_x30_8_Skirt" transform="translate(-0.069 -0.4)">
    <g id="Group_94873" data-name="Group 94873" transform="translate(0.069 0.4)">
      <g id="Group_94869" data-name="Group 94869" transform="translate(0.521 1.581)">
        <g id="Group_94868" data-name="Group 94868" transform="translate(0 2.767)">
          <path id="Path_123892" data-name="Path 123892" d="M35.952,29.615A92.048,92.048,0,0,0,27.368,8.1H9.636A92.048,92.048,0,0,0,1.053,29.615a1.907,1.907,0,0,0,.056,1.129L2.86,34.867a1.7,1.7,0,0,0,2.372.847l1.3-.734a1.7,1.7,0,0,1,2.315.678l.96,1.751a1.665,1.665,0,0,0,2.6.452l1.355-1.186a1.668,1.668,0,0,1,2.428.282l.96,1.242a1.694,1.694,0,0,0,2.711,0l.96-1.242a1.668,1.668,0,0,1,2.428-.282L24.6,37.86a1.744,1.744,0,0,0,2.6-.452l.96-1.751a1.733,1.733,0,0,1,2.315-.678l1.3.734a1.69,1.69,0,0,0,2.372-.847L35.9,30.745A1.907,1.907,0,0,0,35.952,29.615Z" transform="translate(-0.991 -8.1)" fill="#ffcd7e"/>
        </g>
        <path id="Path_123893" data-name="Path 123893" d="M16.3,3.2H34.032V6.024H16.3Z" transform="translate(-7.655 -3.2)" fill="#fff"/>
      </g>
      <path id="Path_123894" data-name="Path 123894" d="M20.366,8.2v9.882l-2.033-1.355L16.3,18.082V8.2Z" transform="translate(-7.134 -3.795)" fill="#fff"/>
      <g id="Group_94872" data-name="Group 94872">
        <g id="Group_94870" data-name="Group 94870" transform="translate(11.82 0.565)">
          <path id="Path_123895" data-name="Path 123895" d="M37.689,3.828c0,1.355-.113,2.428-2.033,2.428-.678,0-4.856-1.073-4.856-2.428S34.979,1.4,35.656,1.4C37.577,1.4,37.689,2.473,37.689,3.828Z" transform="translate(-25.266 -1.4)" fill="#ff787d"/>
          <path id="Path_123896" data-name="Path 123896" d="M21,3.828c0,1.355.113,2.428,2.033,2.428.678,0,4.856-1.073,4.856-2.428S23.711,1.4,23.033,1.4C21.113,1.4,21,2.473,21,3.828Z" transform="translate(-21 -1.4)" fill="#ff787d"/>
        </g>
        <g id="Group_94871" data-name="Group 94871">
          <ellipse id="Ellipse_3013" data-name="Ellipse 3013" cx="2.767" cy="2.146" rx="2.767" ry="2.146" transform="translate(15.265 0.847)" fill="#fff"/>
          <path id="Path_123897" data-name="Path 123897" d="M36.058,26.151A94.841,94.841,0,0,0,27.531,4.635V1.981a.607.607,0,0,0-.565-.565H24.482A2.37,2.37,0,0,0,22.279.4a12.455,12.455,0,0,0-2.541.621A4.051,4.051,0,0,0,18.1.682a3.686,3.686,0,0,0-1.638.339A11.653,11.653,0,0,0,13.922.4a2.306,2.306,0,0,0-2.2,1.016H9.235a.566.566,0,0,0-.565.565V4.635A91.325,91.325,0,0,0,.143,26.151a2.369,2.369,0,0,0,.113,1.525L2.006,31.8A2.276,2.276,0,0,0,3.362,33.04c1.355.452,2.259-.508,3.106-.847a1.112,1.112,0,0,1,1.525.452c.791,1.129.96,2.6,2.541,2.88,2.033.339,2.767-2.089,4.066-1.92.791.056.9.734,1.694,1.638a2.273,2.273,0,0,0,1.807.9c1.581,0,2.089-1.412,2.711-2.089A1.236,1.236,0,0,1,21.6,33.6a.983.983,0,0,1,.847.282c.9.678,1.694,1.92,3.219,1.694,1.581-.282,1.807-1.751,2.541-2.88a1.112,1.112,0,0,1,1.525-.452c.847.339,1.751,1.355,3.106.847,1.525-.508,1.412-1.92,3.106-5.365A2.232,2.232,0,0,0,36.058,26.151ZM26.4,2.546V4.24H24.877a8.492,8.492,0,0,0,0-1.694Zm-2.654.847c0,1.355-.113,1.864-1.468,1.864a6.1,6.1,0,0,1-1.412-.282,2.226,2.226,0,0,0,.565-1.525,2.536,2.536,0,0,0-.565-1.525,6.7,6.7,0,0,1,1.412-.282C23.635,1.529,23.748,2.038,23.748,3.393Zm-3.445,0c0,.9-1.016,1.581-2.2,1.581s-2.2-.734-2.2-1.581,1.016-1.581,2.2-1.581S20.3,2.489,20.3,3.393ZM13.922,1.529a6.1,6.1,0,0,1,1.412.282,2.226,2.226,0,0,0-.565,1.525,2.536,2.536,0,0,0,.565,1.525,6.7,6.7,0,0,1-1.412.282c-1.355.056-1.468-.452-1.468-1.751,0-1.355.113-1.864,1.468-1.864ZM9.8,5.369h1.92a1.85,1.85,0,0,0,1.016.791v7.454l-1.129-.791a.612.612,0,0,0-.621,0l-1.129.791c-.056,0-.056-8.245-.056-8.245Zm1.525-2.824a8.492,8.492,0,0,0,0,1.694H9.8V2.546Zm23.6,24.621c-.565,1.3-1.694,4.009-1.807,4.235a126.266,126.266,0,0,0-5.816-19.087.556.556,0,1,0-1.016.452,124.472,124.472,0,0,1,5.873,19.257c-.452,0-.621-.226-1.807-.847a2.3,2.3,0,0,0-3.049.9c-.508.9-.9,1.638-1.016,1.807-.282-4.574-1.242-11.464-2.146-18.3a.568.568,0,0,0-1.129.113c.96,7,1.92,14.061,2.2,18.635-.565-.056-.678-.4-1.92-1.412a2.048,2.048,0,0,0-1.694-.508,2.286,2.286,0,0,0-1.581.9c-.9,1.129-.9,1.3-1.242,1.525v-16.6a.565.565,0,1,0-1.129,0V34.791a1.5,1.5,0,0,1-.339-.282c-.678-.678-1.129-2.089-2.767-2.089s-2.372,1.807-3.388,1.976c.169-2.711.565-6.551,1.3-11.972a.561.561,0,0,0-.508-.621.534.534,0,0,0-.621.508c-.678,5.139-1.073,8.866-1.242,11.633-.113-.226-.4-.678-1.016-1.807a2.3,2.3,0,0,0-3.049-.9,9.867,9.867,0,0,1-1.92.791A146.406,146.406,0,0,1,8.162,17.454a.572.572,0,0,0-1.073-.4A135.618,135.618,0,0,0,3.079,31.4c0-.056-.056-.056-.056-.113L1.272,27.167a1.1,1.1,0,0,1-.056-.734A97.316,97.316,0,0,1,8.67,6.951v7.68a.593.593,0,0,0,.282.508.519.519,0,0,0,.565-.056l1.694-1.129,1.694,1.129a.8.8,0,0,0,.339.113.509.509,0,0,0,.282-.056.593.593,0,0,0,.282-.508v-8.3h.056a12.455,12.455,0,0,0,2.541-.621,4.15,4.15,0,0,0,1.694.4,3.686,3.686,0,0,0,1.638-.339,11.653,11.653,0,0,0,2.541.621,2.306,2.306,0,0,0,2.2-1.016h2.146a92.535,92.535,0,0,1,8.358,21.064A1.1,1.1,0,0,1,34.929,27.167Z" transform="translate(-0.069 -0.4)" fill="#2d3437"/>
        </g>
      </g>
    </g>
  </g>
</svg>
