<svg xmlns="http://www.w3.org/2000/svg" width="24.879" height="30.649" viewBox="0 0 24.879 30.649">
  <g id="shirt-6" transform="translate(-48.025)">
    <g id="Group_94862" data-name="Group 94862" transform="translate(50.024 0.451)">
      <path id="Path_123884" data-name="Path 123884" d="M101.056,13.841l-4.6-6.131a.527.527,0,0,0-.422-.211H94.988a.527.527,0,0,0-.5.7,2.69,2.69,0,0,1-2.546,3.559H91.6A2.69,2.69,0,0,1,89.058,8.2a.527.527,0,0,0-.5-.7H87.512a.527.527,0,0,0-.422.211l-4.6,6.131a5.943,5.943,0,0,0,.035,7.177V22.06a.421.421,0,0,0,.421.421H100.6a.421.421,0,0,0,.421-.421V21.018A5.942,5.942,0,0,0,101.056,13.841Z" transform="translate(-81.303 -7.499)" fill="#ffedb1"/>
    </g>
    <g id="Group_94863" data-name="Group 94863" transform="translate(48.476 18.101)">
      <path id="Path_123885" data-name="Path 123885" d="M77.439,303.075l-.347-1.641a.2.2,0,0,0-.194-.14H58.143a.2.2,0,0,0-.194.14l-.344,1.032c-.5,1.484-.928,3.589-1.3,5.109l-.753,3.088a.733.733,0,0,0,.563.891l8.785,1.822a.732.732,0,0,0,.816-.414l1.5-3.3a.333.333,0,0,1,.607,0l1.5,3.3a.733.733,0,0,0,.816.414l8.785-1.822a.733.733,0,0,0,.563-.891l-.755-3.1Q78.179,305.3,77.439,303.075Z" transform="translate(-55.532 -301.295)" fill="#d29b6e"/>
    </g>
    <g id="Group_94864" data-name="Group 94864" transform="translate(63.332 0.451)">
      <path id="Path_123886" data-name="Path 123886" d="M309.255,13.842l-4.6-6.131a.527.527,0,0,0-.422-.211h-1.048a.522.522,0,0,0-.377.16.522.522,0,0,1,.044.051l4.6,6.131a5.943,5.943,0,0,1,.351,6.607,2.777,2.777,0,0,0-.386,1.424v.188a.421.421,0,0,1-.421.421h1.8a.421.421,0,0,0,.421-.421V21.019a5.942,5.942,0,0,0,.035-7.177Z" transform="translate(-302.81 -7.5)" fill="#ffe17d"/>
    </g>
    <g id="Group_94865" data-name="Group 94865" transform="translate(68.04 18.101)">
      <path id="Path_123887" data-name="Path 123887" d="M385.563,310.665l-.755-3.1q-.554-2.272-1.294-4.492l-.347-1.641a.2.2,0,0,0-.194-.14h-1.8a.2.2,0,0,1,.194.14l.347,1.641q.74,2.218,1.294,4.492l.755,3.1c.21.8-.045,1.033-.269,1.2l1.508-.313A.733.733,0,0,0,385.563,310.665Z" transform="translate(-381.171 -301.296)" fill="#c48d66"/>
    </g>
    <g id="Group_94866" data-name="Group 94866" transform="translate(58.224 9.061)">
      <path id="Path_123888" data-name="Path 123888" d="M222.016,153.307a.253.253,0,0,0,.254-.249v0a2.24,2.24,0,1,0-4.481,0v0a.253.253,0,0,0,.254.249Z" transform="translate(-217.79 -150.815)" fill="#d29b6e"/>
    </g>
    <g id="Group_94867" data-name="Group 94867" transform="translate(48.025 0)">
      <path id="Path_123889" data-name="Path 123889" d="M214.966,146.707a.7.7,0,0,0,.7-.7,2.691,2.691,0,1,0-5.382,0,.7.7,0,0,0,.7.7Zm-1.986-2.492a1.792,1.792,0,0,1,1.779,1.591H211.2A1.792,1.792,0,0,1,212.98,144.215Z" transform="translate(-200.54 -134.704)"/>
      <path id="Path_123890" data-name="Path 123890" d="M75.117,15.011a.872.872,0,0,0,.871.871h3.917a.451.451,0,0,0,0-.9H76.019V13.969a.451.451,0,0,0-.093-.274,5.511,5.511,0,0,1-.032-6.633l4.6-6.131A.077.077,0,0,1,80.553.9H81.6a.076.076,0,0,1,.072.1,3.106,3.106,0,0,0,.418,2.842,3.106,3.106,0,0,0,2.554,1.313h.34A3.106,3.106,0,0,0,87.54,3.844,3.106,3.106,0,0,0,87.958,1,.076.076,0,0,1,88.03.9h1.048a.077.077,0,0,1,.061.031l4.6,6.131a5.511,5.511,0,0,1-.032,6.633.451.451,0,0,0-.093.274v1.012h-11.9a.451.451,0,0,0,0,.9H93.642a.872.872,0,0,0,.871-.871v-.892a6.417,6.417,0,0,0-.056-7.6L89.859.391A.982.982,0,0,0,89.077,0H88.03A.977.977,0,0,0,87.1,1.293a2.215,2.215,0,0,1-.3,2.026,2.215,2.215,0,0,1-1.821.937h-.34a2.215,2.215,0,0,1-1.821-.937,2.215,2.215,0,0,1-.3-2.026A.977.977,0,0,0,81.6,0H80.553a.982.982,0,0,0-.782.391l-4.6,6.131a6.417,6.417,0,0,0-.056,7.6v.892Z" transform="translate(-72.345 0)"/>
      <path id="Path_123891" data-name="Path 123891" d="M72.87,303.507s-2.386-9.2-2.4-9.242l-.007-.023a.654.654,0,0,0-.621-.448H66.924a.451.451,0,0,0,0,.9h2.731c.244.888,1.847,7,1.847,7l-9.7,2.1-.626-1.378a.784.784,0,0,0-1.428,0l-.64,1.409-9.691-2.1s1.2-5.1,1.557-6.174l.288-.864h7.671v3.4a.451.451,0,1,0,.9,0v-3.4h1.255v5.278a.451.451,0,1,0,.9,0V294.7h3.128a.451.451,0,1,0,0-.9H51.087a.654.654,0,0,0-.621.448l-.344,1.032c-.373,1.117-2.062,8.233-2.062,8.233a1.183,1.183,0,0,0,.909,1.439s8.949,1.847,9.029,1.847a1.176,1.176,0,0,0,1.073-.694l1.394-3.066,1.394,3.066a1.177,1.177,0,0,0,1.317.669l8.785-1.822a1.183,1.183,0,0,0,.909-1.439Zm-14.933,2.379-8.785-1.822a.282.282,0,0,1-.217-.343l.271-1.112,9.523,2.065-.478,1.052A.281.281,0,0,1,57.936,305.886Zm14.022-1.948a.279.279,0,0,1-.181.125l-8.785,1.822a.281.281,0,0,1-.314-.159l-.493-1.084,9.529-2.066.279,1.144A.28.28,0,0,1,71.958,303.938Z" transform="translate(-48.025 -276.144)"/>
    </g>
  </g>
</svg>
