<svg xmlns="http://www.w3.org/2000/svg" width="33.947" height="39.747" viewBox="0 0 33.947 39.747">
  <g id="shirt-4" transform="translate(-37.356 0)">
    <path id="Path_123848" data-name="Path 123848" d="M77.6,41.609c-.211-.582.136-.148-9.088-4.759H54.031c-9.234,4.616-9,4.19-9.132,4.923a1.018,1.018,0,0,0,.126.708c0,.008,2.639,4.452,2.681,4.505a.6.6,0,0,0,.769.151c.031-.017.052-.033.084-.051l.06-.032c1.423-.767,1.442-.84,1.671-.734.163.075.187.092.8,1.859h0c2.116,6.668.46,14.937-1.662,21.631a1.217,1.217,0,0,0,.714,1.422c5.978,2.5,15.82,2.561,21.978.111a1.5,1.5,0,0,0,.795-.53,1.191,1.191,0,0,0,.191-1c-2.159-6.558-3.742-15.078-1.662-21.631h0c.6-1.682.615-1.8.841-1.874a.365.365,0,0,1,.325.042h0l1.369.738c.032.017.054.034.084.051a.6.6,0,0,0,.769-.151c.048-.061.019-.025.7-1.177,2.046-3.514,2.12-3.389,2.12-3.851A1.055,1.055,0,0,0,77.6,41.609Z" transform="translate(-6.941 -33.989)" fill="#f96989"/>
    <path id="Path_123849" data-name="Path 123849" d="M218.2,36.851h-2.657l3.141,3.311,1.323-1.395Z" transform="translate(-164.357 -33.99)" fill="#ed5a81"/>
    <path id="Path_123850" data-name="Path 123850" d="M189.124,7.619,191.1,10.1h6.408l1.99-2.489A1.458,1.458,0,0,0,199,7.5c-9.657.05-9.359-.109-9.887.121h0Z" transform="translate(-139.977 -6.913)" fill="#dd4a78"/>
    <path id="Path_123851" data-name="Path 123851" d="M191.679,7.5c-2.228-.014-2.24-.02-2.566.121h0l.009,0L191.1,10.1h3.026Z" transform="translate(-139.976 -6.913)" fill="#d34477"/>
    <path id="Path_123852" data-name="Path 123852" d="M104.761,173.17c2.221-6.694,3.953-16.749,1.739-23.417h0c-.637-1.738-.667-1.782-.842-1.859-.239-.106-.259-.034-1.748.734.005,0-.06.029-.125.068.2.083.206.077.836,1.873h0c2.115,6.668.46,14.937-1.662,21.631a1.217,1.217,0,0,0,.714,1.422c.4.168.822.324,1.226.46A1.092,1.092,0,0,1,104.761,173.17Z" transform="translate(-60.469 -136.377)" fill="#ed5a81"/>
    <g id="Group_94860" data-name="Group 94860" transform="translate(47.09 0.695)">
      <path id="Path_123853" data-name="Path 123853" d="M407.25,85.357c-.19-.623-.6-.608-1.645-1.17l-3.356,5.831,1.358.732.029.016a.605.605,0,0,0,.828-.122c.039-.05-.142.25,2.678-4.5A1.029,1.029,0,0,0,407.25,85.357Z" transform="translate(-383.655 -78.347)" fill="#dd4a78"/>
      <path id="Path_123854" data-name="Path 123854" d="M164.211,9.535h0l-1.474,1.721,3.5,5.224a.7.7,0,0,0,.978.144l2.761-2.057L164.794,9.1A1.6,1.6,0,0,0,164.211,9.535Z" transform="translate(-162.737 -9.09)" fill="#dd4a78"/>
      <path id="Path_123855" data-name="Path 123855" d="M261.195,8.962,256,14.438l2.863,2.133a.582.582,0,0,0,.808-.119l3.569-5.325C261.768,9.485,261.707,9.17,261.195,8.962Z" transform="translate(-248.761 -8.962)" fill="#dd4a78"/>
    </g>
    <path id="Path_123856" data-name="Path 123856" d="M54.031,36.857c-9.234,4.616-9,4.19-9.132,4.923a1.018,1.018,0,0,0,.126.708l.843,1.422c.059-.79.915-.949,9.423-5.173Z" transform="translate(-6.941 -33.996)" fill="#ed5a81"/>
    <path id="Path_123857" data-name="Path 123857" d="M45.05,86.144c2.854,4.806,2.655,4.514,2.8,4.619a.606.606,0,0,0,.443.108c.132-.019.087,0,1.65-.853l-3.356-5.831-1.132.557A.982.982,0,0,0,45.05,86.144Z" transform="translate(-6.966 -77.652)" fill="#dd4a78"/>
    <path id="Path_123858" data-name="Path 123858" d="M46.573,84.187c-1.085.56-1.6.66-1.672,1.32-.048.464.154.666.979,2.058a1.029,1.029,0,0,1,.014-.112c.065-.351.424-.625,1.8-1.324Z" transform="translate(-6.953 -77.652)" fill="#d34477"/>
    <path id="Path_123859" data-name="Path 123859" d="M249.087,119.536a.6.6,0,0,0,0-1.2.582.582,0,0,0-.582.582v.039A.582.582,0,0,0,249.087,119.536Z" transform="translate(-194.757 -109.147)"/>
    <path id="Path_123860" data-name="Path 123860" d="M249.074,409.4a.582.582,0,0,0,.582-.582v-.079a.582.582,0,0,0-.582-.582A.623.623,0,0,0,249.074,409.4Z" transform="translate(-194.744 -376.469)"/>
    <path id="Path_123861" data-name="Path 123861" d="M248.5,367.376a.582.582,0,1,0,1.164,0v-.08a.582.582,0,1,0-1.164,0Z" transform="translate(-194.756 -338.245)"/>
    <path id="Path_123862" data-name="Path 123862" d="M248.5,325.936a.582.582,0,1,0,1.164,0v-.08a.582.582,0,1,0-1.164,0Z" transform="translate(-194.756 -300.023)"/>
    <path id="Path_123863" data-name="Path 123863" d="M248.5,284.495a.582.582,0,1,0,1.164,0v-.079a.582.582,0,1,0-1.164,0Z" transform="translate(-194.756 -261.799)"/>
    <path id="Path_123864" data-name="Path 123864" d="M248.5,243.054a.582.582,0,1,0,1.164,0v-.08a.582.582,0,1,0-1.164,0Z" transform="translate(-194.756 -223.575)"/>
    <path id="Path_123865" data-name="Path 123865" d="M248.5,201.613a.582.582,0,0,0,.582.582.623.623,0,0,0,0-1.244.582.582,0,0,0-.582.582Z" transform="translate(-194.756 -185.351)"/>
    <path id="Path_123866" data-name="Path 123866" d="M248.5,160.173a.582.582,0,1,0,1.164,0v-.08a.582.582,0,1,0-1.164,0Z" transform="translate(-194.756 -147.128)"/>
    <path id="Path_123867" data-name="Path 123867" d="M153.118,7.536h0a1.521,1.521,0,0,0-.595-.837c-.2-.144.168.072-8.718-4.311C142.39.8,142.277.413,141.612.154c-.6-.243-.23-.1-8.3-.149-2.068-.013-2.107-.013-2.532.172-.72.314-.931.83-2.18,2.215l-2.153,1.059a.582.582,0,1,0,.514,1.045l1.8-.887,3.218,4.8a1.286,1.286,0,0,0,1.81.286l2.413-1.8,2.515,1.874a1.163,1.163,0,0,0,1.64-.261l3.286-4.9L150.1,6.784l-2.841,4.935c-.7.063-.857.7-1.036,1.2a16.047,16.047,0,0,0-.563,1.661.582.582,0,1,0,1.122.313c.174-.622.474-1.438.666-1.92l1.212.655a1.186,1.186,0,0,0,1.629-.353c.033-.05,2.636-4.435,2.665-4.485A1.6,1.6,0,0,0,153.118,7.536ZM140.136,1.175,138.773,2.6h-5.134l-1.375-1.439C133.235,1.165,135.523,1.195,140.136,1.175ZM133.1,7.762a.142.142,0,0,1-.147,0L129.695,2.9c1.12-1.3,1.14-1.338,1.241-1.442l4.4,4.635Zm1.63-3.995h2.956l-1.478,1.558Zm4.684,4.067h0L137.079,6.1l4.4-4.638c.2.219.566.693,1.233,1.453Zm9.884,4.809h0Zm.009,0h0l-.008,0c-.013,0,.094.049-.935-.506L151.148,7.3c.592.3.8.325.857.59l.006.048C152.029,8.148,152.071,7.993,149.3,12.642Z" transform="translate(-81.875)"/>
    <path id="Path_123868" data-name="Path 123868" d="M190.662,217.415a.582.582,0,0,0-1.153-.16c-1.182,8.5,2,17.134,2.39,18.669a.131.131,0,0,0,.005.015.64.64,0,0,1-.1.453c-.383.574-7.546,3.142-16.715,1.692l-.145-.024a.582.582,0,0,0-.187,1.149c.132.021.089.016.281.045a36.381,36.381,0,0,0,14.544-.725,19.847,19.847,0,0,0,2.524-.888,1.814,1.814,0,0,0,.947-1.882C192.973,235.232,189.459,226.072,190.662,217.415Z" transform="translate(-126.285 -199.926)"/>
    <path id="Path_123869" data-name="Path 123869" d="M46.059,92.126a22.631,22.631,0,0,1-2.677-.9.645.645,0,0,1-.337-.684C45.45,83.28,47.059,73.959,44.1,66.9a.955.955,0,0,0-.821-.641l-2.841-4.935,2.213-1.089a.582.582,0,1,0-.514-1.045l-3.9,1.92h0a1.536,1.536,0,0,0-.868,1.274c-.044.7.038.638,2.444,4.692l.411.691a1.189,1.189,0,0,0,1.15.573c.354-.038.543-.194,1.719-.833,2.724,6.855,1.169,15.668-1.148,22.668a1.8,1.8,0,0,0,1.041,2.147,21.189,21.189,0,0,0,2.778.929.582.582,0,1,0,.3-1.125Zm-4.82-24.942h-.007c-.005,0-.009,0-.017-.017-2.864-4.824-2.708-4.486-2.69-4.7.035-.319.285-.312.862-.627l2.786,4.839Z" transform="translate(0 -54.54)"/>
  </g>
</svg>
