<svg id="apple" xmlns="http://www.w3.org/2000/svg" width="14.679" height="17.186" viewBox="0 0 14.679 17.186">
  <g id="Group_5" data-name="Group 5" transform="translate(7.055)">
    <g id="Group_4" data-name="Group 4" transform="translate(0)">
      <path id="Path_9" data-name="Path 9" d="M251.028,0a4.033,4.033,0,0,0-2.611,1.414,3.5,3.5,0,0,0-.855,2.722A3.4,3.4,0,0,0,250.2,2.789,3.781,3.781,0,0,0,251.028,0Z" transform="translate(-247.522)" fill="#fff"/>
    </g>
  </g>
  <g id="Group_7" data-name="Group 7" transform="translate(0 4.023)">
    <g id="Group_6" data-name="Group 6" transform="translate(0)">
      <path id="Path_10" data-name="Path 10" d="M51.518,121.583a4.35,4.35,0,0,0-3.284-1.743c-1.541,0-2.193.738-3.264.738-1.1,0-1.943-.736-3.276-.736a4.458,4.458,0,0,0-3.588,2.169c-1.243,1.927-1.03,5.55.984,8.636.721,1.1,1.683,2.346,2.942,2.357,1.12.011,1.436-.719,2.954-.726s1.806.736,2.924.724c1.26-.01,2.275-1.386,3-2.49a12.382,12.382,0,0,0,1.11-2.084A3.789,3.789,0,0,1,51.518,121.583Z" transform="translate(-37.336 -119.84)" fill="#fff"/>
    </g>
  </g>
</svg>
