<svg xmlns="http://www.w3.org/2000/svg" width="25" height="25" viewBox="0 0 25 25">
  <g id="Group_5" data-name="Group 5" transform="translate(-0.393 -0.5)">
    <g id="Group_176" data-name="Group 176" transform="translate(0 0)">
      <g id="Component_Icon_Google" data-name="Component/Icon/Google" transform="translate(0)">
        <rect id="Rectangle_183" data-name="Rectangle 183" width="25" height="25" transform="translate(0.393 0.5)" fill="#c4c4c4" opacity="0"/>
        <path id="Vector" d="M15.391,6.794H7.966V10h4.273a4.009,4.009,0,0,1-4.273,3.21A4.8,4.8,0,0,1,3.259,8.3,4.8,4.8,0,0,1,7.966,3.4a4.493,4.493,0,0,1,2.934,1.1l2.318-2.416A7.75,7.75,0,0,0,7.966,0,8.117,8.117,0,0,0,0,8.3a8.117,8.117,0,0,0,7.966,8.3c3.983,0,7.605-3.02,7.605-8.3A7.22,7.22,0,0,0,15.391,6.794Z" transform="translate(4.858 4.11)" fill="#fff"/>
      </g>
    </g>
  </g>
</svg>
