<svg id="_1330166" data-name="1330166" xmlns="http://www.w3.org/2000/svg" width="103.865" height="103.865" viewBox="0 0 103.865 103.865">
  <path id="Path_2301" data-name="Path 2301" d="M100.822,331H3.043A3.042,3.042,0,0,0,0,334.043v30.632a3.042,3.042,0,0,0,3.043,3.043h97.779a3.042,3.042,0,0,0,3.043-3.043V334.043A3.042,3.042,0,0,0,100.822,331ZM27.957,350.149a3.043,3.043,0,0,1-4.3,4.3L21.5,352.3l-2.151,2.151a3.043,3.043,0,0,1-4.3-4.3L17.2,348l-2.151-2.151a3.043,3.043,0,1,1,4.3-4.3l2.151,2.151,2.151-2.151a3.043,3.043,0,0,1,4.3,4.3L25.806,348Zm18.257,0a3.043,3.043,0,1,1-4.3,4.3L39.761,352.3l-2.151,2.151a3.043,3.043,0,0,1-4.3-4.3L35.458,348l-2.151-2.151a3.043,3.043,0,0,1,4.3-4.3l2.151,2.151,2.151-2.151a3.043,3.043,0,0,1,4.3,4.3L44.063,348Zm18.257,0a3.043,3.043,0,1,1-4.3,4.3L58.018,352.3l-2.151,2.151a3.043,3.043,0,0,1-4.3-4.3L53.715,348l-2.151-2.151a3.043,3.043,0,0,1,4.3-4.3l2.151,2.151,2.151-2.151a3.043,3.043,0,1,1,4.3,4.3L62.321,348Zm17.889,5.194H76.275a3.043,3.043,0,0,1,0-6.086h6.086a3.043,3.043,0,0,1,0,6.086Zm0,0" transform="translate(0 -263.853)" fill="#e0a387"/>
  <path id="Path_2302" data-name="Path 2302" d="M172.3,0a15.233,15.233,0,0,0-15.215,15.215v9.332h-3.043A3.042,3.042,0,0,0,151,27.589V58.018a3.042,3.042,0,0,0,3.043,3.043h36.515a3.042,3.042,0,0,0,3.043-3.043V27.589a3.042,3.042,0,0,0-3.043-3.043h-3.043V15.215A15.233,15.233,0,0,0,172.3,0Zm3.043,45.846a3.043,3.043,0,0,1-6.086,0V39.761a3.043,3.043,0,0,1,6.086,0Zm6.086-21.3H163.172V15.215a9.129,9.129,0,1,1,18.257,0Zm0,0" transform="translate(-120.368)" fill="#2d3437"/>
</svg>
