<svg id="Layer_2" data-name="Layer 2" xmlns="http://www.w3.org/2000/svg" width="24" height="24" viewBox="0 0 24 24">
  <g id="unlock">
    <rect id="Rectangle_9" data-name="Rectangle 9" width="24" height="24" fill="#2d2e49" opacity="0"/>
    <path id="Path_8" data-name="Path 8" d="M7,8h7V6a2,2,0,0,0-4,0A1,1,0,0,1,8,6a4,4,0,0,1,8,0V8h1a3,3,0,0,1,3,3v8a3,3,0,0,1-3,3H7a3,3,0,0,1-3-3V11A3,3,0,0,1,7,8ZM6,19a1,1,0,0,0,1,1H17a1,1,0,0,0,1-1V11a1,1,0,0,0-1-1H7a1,1,0,0,0-1,1Z" fill="#ababb7"/>
    <path id="Path_9" data-name="Path 9" d="M12,12a3,3,0,1,1-3,3A3,3,0,0,1,12,12Zm0,4a1,1,0,1,0-1-1A1,1,0,0,0,12,16Z" fill="#acacac"/>
  </g>
</svg>
