<svg id="Group_86019" data-name="Group 86019" xmlns="http://www.w3.org/2000/svg" xmlns:xlink="http://www.w3.org/1999/xlink" width="196.609" height="85.243" viewBox="0 0 196.609 85.243">
  <defs>
    <clipPath id="clip-path">
      <rect id="Rectangle_56320" data-name="Rectangle 56320" width="196.609" height="85.243" fill="#491b1d"/>
    </clipPath>
  </defs>
  <g id="Group_86018" data-name="Group 86018" clip-path="url(#clip-path)">
    <path id="Path_107693" data-name="Path 107693" d="M6.557,78.708h6.425q5.922,0,12.506-.117l.159.234-1.533,9.05-1.058.205-1.639-6.765H9.2V97.423h2.406q2.749,0,6.134-.059a.926.926,0,0,0,.9-.761l.925-3.954,1.428-.059q-.079,4.1-.079,6.062,0,1.9.079,5.975l-1.428.117-.951-4.012q-.212-.761-.82-.791-3.437-.059-6.213-.059H9.2v10.66q0,3.251.053,6.414h12.69l3.226-7.439,1.19-.234-.582,10.192-.185.205q-6.848-.088-12.638-.088H6.662q-3.2,0-6.557.088L0,118.422l3.252-1.084a.947.947,0,0,0,.714-.908q.026-1.171.04-2.621t.013-3.207V86.85q0-1.494-.013-2.694t-.04-2.167a1,1,0,0,0-.635-1L.053,79.85,0,78.591q3.41.117,6.557.117" transform="translate(0 -47.832)" fill="#491b1d"/>
    <path id="Path_107694" data-name="Path 107694" d="M247.81,96.279q0,9.893-5.192,15.911T228.1,118.209q-8.852,0-13.7-5.561t-4.848-15.053q0-9.892,5.218-15.654t14.466-5.761q8.877,0,13.725,5.389t4.848,14.71m-32.467.372q0,9.321,3.49,14.281t10.232,4.96q6.636,0,9.8-4.5t3.16-14.139q0-9.034-3.358-13.9T228.3,78.5q-6.795,0-9.875,4.5t-3.08,13.653" transform="translate(-127.538 -46.365)" fill="#491b1d"/>
    <path id="Path_107695" data-name="Path 107695" d="M328.018,86.766v23.8q0,3.25.053,6.412h12.876l3.384-7.758,1.19-.205-.582,10.48-.159.205q-6.848-.088-12.665-.088h-6.636q-3.2,0-6.556.088l-.106-1.259,3.252-1.083a.947.947,0,0,0,.714-.908q.026-1.17.04-2.62t.013-3.205V86.883q0-1.494-.013-2.693t-.04-2.167a1,1,0,0,0-.635-1l-3.278-1.141-.053-1.259q3.41.117,6.557.117,3.173,0,6.557-.117l.106,1.259-3.279,1.083a.91.91,0,0,0-.687.908q-.026,1.025-.04,2.986t-.013,1.9" transform="translate(-194.038 -47.855)" fill="#491b1d"/>
    <path id="Path_107696" data-name="Path 107696" d="M425.5,78.178,437.238,113.6a10.184,10.184,0,0,0,1.2,2.708,3.192,3.192,0,0,0,1.547,1.057l2.485.811.053,1.245q-3.464-.087-6.425-.087-3.013,0-7.112.087l-.106-1.245,2.512-.811a1.978,1.978,0,0,0,.753-.449,1.112,1.112,0,0,0,.225-.768,5.675,5.675,0,0,0-.278-1.521q-.277-.94-.78-2.505l-2.486-7.763H416.087l-2.776,7.734q-.555,1.623-.872,2.578a5.142,5.142,0,0,0-.317,1.506.989.989,0,0,0,.251.739,2.007,2.007,0,0,0,.753.42l2.459.782.053,1.3q-3.754-.087-6.134-.087t-5.314.087l-.132-1.245,2.67-.9a2.784,2.784,0,0,0,1.481-1.072,12.225,12.225,0,0,0,1.058-2.259l13.51-35.338Zm-8.434,23.549h10.893L422.8,85.767Z" transform="translate(-245.917 -47.581)" fill="#491b1d"/>
    <g id="Group_86022" data-name="Group 86022" transform="translate(30.885)">
      <path id="Path_107692" data-name="Path 107692" d="M148,84.863a4.883,4.883,0,0,1,.4-4.86,13.237,13.237,0,0,0,1.352-13.128c-.01.029-.022.059-.032.089a2.627,2.627,0,0,0-.172-.431c-.2,1.645-7.4,8.669-7.4,8.669h0A102.233,102.233,0,0,0,127.672,91.99c-6.718,9.765-2.85,20.352-2.85,20.352-.509-1.542,1.12-8.634,5.5-12.54s5.5.514,9.058,1.542.407-2.775,3.156-4.214-1.12-3.392,1.018-2.672,1.73-1.234,1.323-2.364,1.221-1.233,1.221-1.233c3.936,1.782,3.122-3.837,2.036-5.756Q148.063,84.983,148,84.863Z" transform="translate(-106.18 -40.493)" fill="#491b1d" stroke="#491b1d" stroke-miterlimit="10" stroke-width="2"/>
      <path id="Path_107697" data-name="Path 107697" d="M123.383,71.746s-6.514-15.829,7.939-31.248S156.361,15.829,156.361,0c0,0,7.616,14.559-12.825,34.537s-19.543,23.847-20.153,37.209" transform="translate(-105.088)" fill="#491b1d"/>
      <path id="Path_107698" data-name="Path 107698" d="M91.118,95.068l.006,0c-.013-.04-.023-.079-.036-.118l-.877-3.632c-1.667-10.12,5.561-10.947,5.561-10.947l-.389.031.1-.031H78.914s7.1,3.949,8.283,8.808S97.32,120.761,97.32,120.761Z" transform="translate(-78.914 -48.912)" fill="#491b1d"/>
    </g>
    <path id="Path_107699" data-name="Path 107699" d="M107.66,208.2a3.123,3.123,0,0,1,.091.362q.055-.186.112-.352l.7-2.026q.068-.2.1-.306a.69.69,0,0,0,.029-.171.116.116,0,0,0-.032-.088.219.219,0,0,0-.1-.047l-.325-.091-.01-.179q.491.013.8.013t.734-.013l.017.172-.362.1a.384.384,0,0,0-.195.125.976.976,0,0,0-.13.264l-1.458,4.069-.369.031-.856-2.683c-.045-.142-.091-.3-.139-.46q-.081.244-.156.456l-.933,2.656-.366.031L103.5,206.01a.986.986,0,0,0-.151-.316.434.434,0,0,0-.2-.124l-.328-.095-.01-.172q.456.013.92.013.609,0,1.191-.013l.02.172-.335.095a.236.236,0,0,0-.1.05.125.125,0,0,0-.031.092.815.815,0,0,0,.025.176c.017.072.045.17.083.294l.629,2.019q.054.183.091.362c.036-.124.072-.241.108-.352l1-2.912.342-.031Z" transform="translate(-62.57 -124.931)" fill="#491b1d"/>
    <path id="Path_107700" data-name="Path 107700" d="M125.408,207.449a2.588,2.588,0,0,1-.69,1.882,2.55,2.55,0,0,1-1.921.712,2.253,2.253,0,0,1-2.463-2.439,2.478,2.478,0,0,1,.693-1.852,2.619,2.619,0,0,1,1.918-.682,2.474,2.474,0,0,1,1.82.638,2.341,2.341,0,0,1,.643,1.74m-3.937.044a3.1,3.1,0,0,0,.365,1.656,1.192,1.192,0,0,0,1.072.573,1.136,1.136,0,0,0,1.03-.521,3.112,3.112,0,0,0,.333-1.637,3.058,3.058,0,0,0-.352-1.612,1.194,1.194,0,0,0-1.089-.563,1.126,1.126,0,0,0-1.037.523,3.067,3.067,0,0,0-.323,1.581" transform="translate(-73.238 -124.81)" fill="#491b1d"/>
    <path id="Path_107701" data-name="Path 107701" d="M139.03,205.357q.467.013.842.013.335,0,.788-.013l.02.172-.463.132a.11.11,0,0,0-.081.112q-.007.224-.007.562v2.7c0,.266,0,.49.007.673a.112.112,0,0,0,.092.105l.44.125.014.169q-.484-.011-1.072-.01-.572,0-.957.01l-.017-.169.389-.118a.116.116,0,0,0,.085-.122q.01-.264.01-.663v-2.165q0-.176.01-.673-.114.291-.243.6l-1.346,3.3-.3.027-1.286-3.2q-.115-.274-.237-.612.007.48.007.632v2.094q0,.4.007.663a.116.116,0,0,0,.088.122l.372.118.01.169q-.4-.011-.694-.01t-.761.01l-.017-.169.453-.125a.112.112,0,0,0,.091-.105c0-.182.007-.407.007-.673v-2.7q0-.338-.007-.562a.11.11,0,0,0-.081-.112l-.454-.132-.01-.172q.561.013.842.013.386,0,.789-.013l1.18,2.98c.052.128.1.25.139.366.045-.115.093-.237.142-.366Z" transform="translate(-81.996 -124.984)" fill="#491b1d"/>
    <path id="Path_107702" data-name="Path 107702" d="M152.348,205.37h.856q.822,0,1.7-.013l.024.027-.21,1.127-.182.027-.216-.822h-1.309v1.8h.182c.2,0,.407,0,.633-.007a.116.116,0,0,0,.115-.091l.122-.464.223-.01q-.01.491-.01.734t.01.724l-.223.017-.125-.477a.112.112,0,0,0-.1-.095q-.345-.006-.643-.007h-.179V209q0,.372.007.737h1.353l.426-.89.206-.03-.081,1.265-.024.024q-.842-.011-1.64-.011h-.9q-.436,0-.9.011l-.017-.169.453-.125a.113.113,0,0,0,.092-.105c0-.09,0-.191,0-.3s0-.235,0-.37v-2.7q0-.169,0-.308c0-.093,0-.177,0-.254a.11.11,0,0,0-.081-.112l-.453-.132-.01-.172q.474.013.9.013" transform="translate(-92.174 -124.984)" fill="#491b1d"/>
    <path id="Path_107703" data-name="Path 107703" d="M162.89,209.69a.111.111,0,0,0,.085.119l.433.118.01.177q-.457-.011-.751-.011t-.761.011l-.017-.169.454-.125a.112.112,0,0,0,.091-.105q.007-.274.007-.673v-2.7q0-.338-.007-.562a.11.11,0,0,0-.081-.112l-.453-.132-.011-.172q.474.013.728.013.331,0,.629-.013l2.25,2.818q.135.169.277.359c0-.156-.007-.305-.007-.45v-1.762q0-.328-.007-.565a.105.105,0,0,0-.088-.1l-.433-.118-.01-.179q.467.013.758.013t.754-.013l.017.172-.46.132a.109.109,0,0,0-.081.112q-.01.224-.01.562v3.758l-.389.037-2.665-3.338q-.119-.152-.274-.362c0,.167.007.32.007.46v2.141c0,.266,0,.486.007.66" transform="translate(-98.528 -124.984)" fill="#491b1d"/>
    <path id="Path_107704" data-name="Path 107704" d="M175.51,204.6h.764l-.338,1.64h-.254Z" transform="translate(-106.819 -124.527)" fill="#491b1d"/>
    <path id="Path_107705" data-name="Path 107705" d="M181.412,205.556a1.281,1.281,0,0,0-.47-.085.911.911,0,0,0-.607.21.73.73,0,0,0-.168.883.921.921,0,0,0,.217.254,1.655,1.655,0,0,0,.31.2q.174.088.36.176.206.1.416.214a1.778,1.778,0,0,1,.375.277,1.264,1.264,0,0,1,.269.384,1.408,1.408,0,0,1-.414,1.62,2.2,2.2,0,0,1-1.366.392,3.9,3.9,0,0,1-1.208-.193l-.02-.031.179-1.218.21-.034.254,1.035a1.285,1.285,0,0,0,.541.112,1.048,1.048,0,0,0,.692-.218.722.722,0,0,0,.262-.584.7.7,0,0,0-.081-.35.907.907,0,0,0-.22-.257,1.719,1.719,0,0,0-.315-.2q-.176-.088-.365-.176-.207-.1-.413-.213a1.635,1.635,0,0,1-.369-.27,1.252,1.252,0,0,1-.264-.381,1.279,1.279,0,0,1-.1-.536,1.233,1.233,0,0,1,.494-1.029,2.035,2.035,0,0,1,1.282-.382,4.886,4.886,0,0,1,1.14.156l.02.031-.206,1.089-.186.03Z" transform="translate(-109.007 -124.863)" fill="#491b1d"/>
    <path id="Path_107706" data-name="Path 107706" d="M196.47,206.514l-.186.031-.257-.971a1.9,1.9,0,0,0-.578-.085,1.349,1.349,0,0,0-1.157.56,2.427,2.427,0,0,0-.409,1.467,2.323,2.323,0,0,0,.482,1.542,1.651,1.651,0,0,0,1.338.575,2.921,2.921,0,0,0,1-.193l.044.193a2.659,2.659,0,0,1-1.529.46,2.447,2.447,0,0,1-1.788-.667,2.615,2.615,0,0,1,.066-3.592,2.8,2.8,0,0,1,1.951-.677,5.571,5.571,0,0,1,1.218.139l.02.034Z" transform="translate(-117.313 -124.863)" fill="#491b1d"/>
    <path id="Path_107707" data-name="Path 107707" d="M205.944,206.321V209q0,.373.007.738h1.322l.463-.961.206-.031-.085,1.337-.023.023q-.836-.01-1.634-.01h-.839q-.5,0-.934.01l-.017-.169.42-.125a.113.113,0,0,0,.091-.1q0-.136.005-.3t0-.37v-2.7q0-.169,0-.308t-.005-.254a.11.11,0,0,0-.081-.112l-.42-.132-.01-.173q.436.014,1.008.013.588,0,1.022-.013l.017.173-.42.125a.106.106,0,0,0-.088.1c0,.081,0,.2-.005.346s0,.223,0,.218" transform="translate(-124.409 -124.984)" fill="#491b1d"/>
    <path id="Path_107708" data-name="Path 107708" d="M219.494,207.449a2.588,2.588,0,0,1-.69,1.882,2.549,2.549,0,0,1-1.921.712,2.253,2.253,0,0,1-2.463-2.439,2.478,2.478,0,0,1,.694-1.852,2.618,2.618,0,0,1,1.918-.682,2.473,2.473,0,0,1,1.82.638,2.341,2.341,0,0,1,.643,1.74m-3.937.044a3.1,3.1,0,0,0,.365,1.656,1.192,1.192,0,0,0,1.072.573,1.137,1.137,0,0,0,1.03-.521,3.117,3.117,0,0,0,.333-1.637,3.058,3.058,0,0,0-.352-1.612,1.194,1.194,0,0,0-1.089-.563,1.127,1.127,0,0,0-1.037.523,3.067,3.067,0,0,0-.323,1.581" transform="translate(-130.5 -124.81)" fill="#491b1d"/>
    <path id="Path_107709" data-name="Path 107709" d="M230.32,210.092q-.6,0-1.137.01l-.017-.169.541-.149a.113.113,0,0,0,.088-.108q.006-.254.007-.653v-3.3h-.975l-.311.9-.19.03-.088-1.265.023-.027q.832.013,1.593.014h.944q.761,0,1.6-.014l.02.027-.223,1.238-.19.03-.22-.933h-.978v3.3q0,.4.007.653a.114.114,0,0,0,.092.108l.531.149.01.169q-.562-.01-1.133-.01" transform="translate(-138.911 -124.984)" fill="#491b1d"/>
    <path id="Path_107710" data-name="Path 107710" d="M241.327,207.775v1.255q0,.4.007.667a.114.114,0,0,0,.088.118l.393.119.01.169q-.42-.01-.991-.01t-1.055.01l-.017-.169.453-.125a.111.111,0,0,0,.091-.1q.006-.274.007-.673v-2.7c0-.225,0-.412-.007-.561a.109.109,0,0,0-.081-.112l-.454-.132-.01-.173q.47.013,1.042.013.588,0,1-.013l.02.173-.4.115a.106.106,0,0,0-.088.1c0,.162-.007.353-.007.572v1.1h2.016v-1.1c0-.218,0-.409-.007-.572a.107.107,0,0,0-.088-.1l-.4-.115-.01-.173q.43.013,1.015.013t1.032-.013l.017.173-.46.132a.114.114,0,0,0-.085.112c0,.149-.007.336-.007.561v2.7q0,.4.007.673a.117.117,0,0,0,.095.1l.44.125.01.169q-.484-.01-1.069-.01t-.977.01l-.017-.169.406-.119a.114.114,0,0,0,.088-.118q.007-.268.007-.667v-1.255Z" transform="translate(-145.923 -124.984)" fill="#491b1d"/>
    <path id="Path_107711" data-name="Path 107711" d="M255.977,209.03q0,.2,0,.369c0,.111,0,.21.005.3,0,.059.04.1.115.118l.416.119.01.169q-.47-.01-1.042-.01-.592,0-1.055.01l-.017-.169.453-.125a.113.113,0,0,0,.091-.1q0-.136.005-.3t0-.37v-2.7c0-.113,0-.215,0-.308s0-.177-.005-.254a.109.109,0,0,0-.081-.112l-.454-.132-.01-.173q.47.013,1.042.013.588,0,1.055-.013l.017.173-.453.125a.106.106,0,0,0-.088.1q0,.122-.005.262t0,.3Z" transform="translate(-154.84 -124.984)" fill="#491b1d"/>
    <path id="Path_107712" data-name="Path 107712" d="M262.111,209.69a.111.111,0,0,0,.085.119l.433.118.01.177q-.457-.011-.751-.011t-.761.011l-.017-.169.454-.125a.112.112,0,0,0,.091-.105q.007-.274.007-.673v-2.7q0-.338-.007-.562a.11.11,0,0,0-.081-.112l-.453-.132-.011-.172q.474.013.728.013.331,0,.629-.013l2.25,2.818q.135.169.277.359c0-.156-.007-.305-.007-.45v-1.762q0-.328-.007-.565a.105.105,0,0,0-.088-.1l-.433-.118-.01-.179q.467.013.758.013t.754-.013l.017.172-.46.132a.109.109,0,0,0-.081.112q-.011.224-.011.562v3.758l-.389.037-2.665-3.338q-.119-.152-.274-.362c0,.167.007.32.007.46v2.141c0,.266,0,.486.007.66" transform="translate(-158.916 -124.984)" fill="#491b1d"/>
    <path id="Path_107713" data-name="Path 107713" d="M278.634,206.483l-.189.027-.237-.933a2.166,2.166,0,0,0-.663-.092,1.4,1.4,0,0,0-1.182.564,2.517,2.517,0,0,0-.425,1.548,2.648,2.648,0,0,0,.426,1.6,1.4,1.4,0,0,0,1.194.575,2.741,2.741,0,0,0,.393-.031v-.89q0-.169,0-.308t-.005-.254a.11.11,0,0,0-.084-.112l-.46-.132-.01-.169q.48.011,1.042.011.579,0,.991-.011l.02.169-.4.112a.109.109,0,0,0-.088.1c0,.09,0,.182-.005.276s0,.195,0,.3v1.066l-.024.024a6.236,6.236,0,0,1-1.384.165,2.977,2.977,0,0,1-1.98-.629,2.165,2.165,0,0,1-.749-1.755,2.4,2.4,0,0,1,.749-1.876,2.933,2.933,0,0,1,2.045-.678,5.418,5.418,0,0,1,1.225.139l.024.03Z" transform="translate(-167.254 -124.863)" fill="#491b1d"/>
    <path id="Path_107714" data-name="Path 107714" d="M294.99,207.478c.128,0,.258.008.387.01s.271,0,.425,0c.131,0,.247,0,.35,0s.2-.006.289-.01l.014.176-.437.1c-.047.011-.068.038-.061.078a1.743,1.743,0,0,1,.02.291,1.977,1.977,0,0,1-.362,1.147,3.192,3.192,0,0,0,.453.494.533.533,0,0,0,.2.1.9.9,0,0,0,.235.03,1.148,1.148,0,0,0,.207-.02l.031.186a1.946,1.946,0,0,1-.755.152,1.477,1.477,0,0,1-1.008-.355,2.337,2.337,0,0,1-1.232.342,2.054,2.054,0,0,1-1.207-.345,1.079,1.079,0,0,1-.494-.93,1.446,1.446,0,0,1,.974-1.292,2.8,2.8,0,0,1-.431-.605,1.306,1.306,0,0,1-.13-.578.908.908,0,0,1,.4-.776,1.622,1.622,0,0,1,.974-.289,1.489,1.489,0,0,1,.881.254.8.8,0,0,1,.36.686q0,.674-1.008,1.171l1.282,1.471a1.576,1.576,0,0,0,.22-.791,1.975,1.975,0,0,0-.017-.308.142.142,0,0,0-.042-.092.226.226,0,0,0-.1-.04l-.42-.085Zm-1.746.416a1.239,1.239,0,0,0-.23.775,1.156,1.156,0,0,0,.266.785.9.9,0,0,0,.722.308,1.571,1.571,0,0,0,.717-.176Zm.626-.626a1.167,1.167,0,0,0,.349-.893.862.862,0,0,0-.119-.48.371.371,0,0,0-.325-.179.4.4,0,0,0-.328.15.6.6,0,0,0-.122.387,1.268,1.268,0,0,0,.366.809Z" transform="translate(-177.748 -125.005)" fill="#491b1d"/>
    <path id="Path_107715" data-name="Path 107715" d="M306.46,209.009c0,.135,0,.256,0,.363s0,.2.005.29a.115.115,0,0,0,.088.108l.5.142.01.169q-.524-.011-1.1-.01-.592,0-1.056.01l-.017-.169.453-.125a.112.112,0,0,0,.092-.105c0-.09,0-.191,0-.3s0-.235,0-.37v-2.7q0-.169,0-.308c0-.092,0-.177,0-.254a.11.11,0,0,0-.081-.112l-.454-.132-.01-.172q.474.013.937.013.318,0,.617-.013c.2-.009.382-.014.546-.014a2.484,2.484,0,0,1,1.384.316,1.057,1.057,0,0,1,.47.939,1.4,1.4,0,0,1-.489,1.142,2.094,2.094,0,0,1-1.378.407,3.945,3.945,0,0,1-.521-.037Zm0-1.245a2.024,2.024,0,0,0,.382.037.837.837,0,0,0,.675-.272,1.245,1.245,0,0,0,.232-.823,1.22,1.22,0,0,0-.22-.8.855.855,0,0,0-.694-.262,2.6,2.6,0,0,0-.375.027Z" transform="translate(-185.565 -124.963)" fill="#491b1d"/>
    <path id="Path_107716" data-name="Path 107716" d="M316.795,205.37h.856q.821,0,1.7-.013l.024.027-.21,1.127-.182.027-.217-.822h-1.309v1.8h.183q.294,0,.632-.007a.116.116,0,0,0,.115-.091l.122-.464.223-.01q-.011.491-.01.734t.01.724l-.223.017-.125-.477a.113.113,0,0,0-.1-.095q-.345-.006-.643-.007h-.179V209q0,.372.007.737h1.353l.426-.89.206-.03-.081,1.265-.024.024q-.842-.011-1.64-.011h-.9q-.436,0-.9.011l-.017-.169.453-.125a.113.113,0,0,0,.092-.105q0-.135,0-.3c0-.112,0-.235,0-.37v-2.7q0-.169,0-.308c0-.093,0-.177,0-.254a.11.11,0,0,0-.081-.112l-.453-.132-.011-.172q.474.013.9.013" transform="translate(-192.26 -124.984)" fill="#491b1d"/>
    <path id="Path_107717" data-name="Path 107717" d="M328.109,209c0,.135,0,.256,0,.363s0,.205.005.293c0,.072.027.116.077.132l.351.115.01.169q-.375-.011-.93-.01c-.394,0-.747,0-1.056.01l-.017-.169.454-.125a.113.113,0,0,0,.091-.105c0-.09,0-.191.005-.3s0-.235,0-.37v-2.7c0-.113,0-.215,0-.308s0-.177-.005-.254a.109.109,0,0,0-.081-.112l-.454-.132-.01-.172q.474.013.971.013.1,0,.26-.005l.379-.012.34-.01.215,0a2.367,2.367,0,0,1,1.3.291.959.959,0,0,1,.434.849,1.208,1.208,0,0,1-.265.813,1.671,1.671,0,0,1-.78.476q.285.419.438.68t.31.513q.156.252.283.445a1.919,1.919,0,0,0,.238.3c.041.034.079.063.117.088a.832.832,0,0,0,.117.064.924.924,0,0,0,.13.046c.046.012.1.024.154.036l.014.172a5.387,5.387,0,0,1-.758.047,1.759,1.759,0,0,1-.474-.044.8.8,0,0,1-.24-.125,1.314,1.314,0,0,1-.285-.318c-.087-.131-.179-.278-.276-.443s-.2-.339-.3-.524-.211-.367-.323-.548l-.083-.128a.3.3,0,0,0-.064-.076.222.222,0,0,0-.068-.037.353.353,0,0,0-.09-.015l-.142,0Zm0-1.424c.12.007.228.01.324.01a.915.915,0,0,0,.7-.242,1.087,1.087,0,0,0,.224-.756,1.033,1.033,0,0,0-.215-.726.878.878,0,0,0-.668-.228c-.051,0-.108,0-.167.007s-.127.011-.2.02Z" transform="translate(-198.746 -124.958)" fill="#491b1d"/>
    <path id="Path_107718" data-name="Path 107718" d="M340.6,207.914v1.117c0,.266,0,.484.007.653a.112.112,0,0,0,.088.108l.5.142.01.169q-.524-.011-1.1-.011t-1.055.011l-.017-.169.453-.125a.112.112,0,0,0,.092-.105q.006-.274.006-.673v-2.7q0-.169,0-.308c0-.093,0-.177,0-.254a.11.11,0,0,0-.081-.112l-.454-.132-.01-.172q.474.013.9.013h.856q.823,0,1.705-.013l.023.027-.21,1.127-.183.027-.216-.822H340.6v1.874h.193q.3,0,.632-.007a.113.113,0,0,0,.115-.091l.122-.463.223-.01q-.01.491-.01.734t.01.724l-.223.02-.125-.48a.113.113,0,0,0-.1-.095q-.342-.007-.643-.007Z" transform="translate(-206.342 -124.984)" fill="#491b1d"/>
    <path id="Path_107719" data-name="Path 107719" d="M348.679,205.357q.47.013,1.042.013.588,0,1.042-.013l.017.172-.44.125a.106.106,0,0,0-.088.1c0,.081,0,.168-.005.262s0,.195,0,.3v1.864a2.148,2.148,0,0,0,.277,1.277,1.074,1.074,0,0,0,.9.354,1.118,1.118,0,0,0,.918-.374,1.914,1.914,0,0,0,.306-1.213v-1.908q0-.162,0-.3t-.007-.262a.106.106,0,0,0-.088-.1l-.42-.118-.01-.179q.45.013.778.013.3,0,.764-.013l.017.172-.46.132a.109.109,0,0,0-.085.112q0,.116-.005.254t0,.308v1.719a2.387,2.387,0,0,1-.478,1.669,1.826,1.826,0,0,1-1.392.506,2.121,2.121,0,0,1-1.532-.482,2.082,2.082,0,0,1-.494-1.544v-1.868q0-.169,0-.308c0-.092,0-.177,0-.254a.11.11,0,0,0-.081-.112l-.454-.132Z" transform="translate(-212.213 -124.984)" fill="#491b1d"/>
    <path id="Path_107720" data-name="Path 107720" d="M366.7,205.357q.467.013.842.013.336,0,.789-.013l.02.172-.464.132a.109.109,0,0,0-.081.112q-.007.224-.007.562v2.7c0,.266,0,.49.007.673a.112.112,0,0,0,.092.105l.44.125.014.169q-.484-.011-1.072-.01-.572,0-.958.01l-.017-.169.389-.118a.116.116,0,0,0,.085-.122q.011-.264.011-.663v-2.165q0-.176.01-.673-.114.291-.243.6l-1.346,3.3-.3.027-1.285-3.2q-.115-.274-.237-.612.006.48.007.632v2.094q0,.4.007.663a.116.116,0,0,0,.088.122l.372.118.01.169q-.4-.011-.694-.01c-.194,0-.447,0-.761.01l-.017-.169.453-.125a.112.112,0,0,0,.092-.105c0-.182.007-.407.007-.673v-2.7q0-.338-.007-.562a.11.11,0,0,0-.081-.112l-.454-.132-.01-.172q.562.013.842.013.386,0,.788-.013l1.181,2.98c.052.128.1.25.139.366.045-.115.093-.237.142-.366Z" transform="translate(-220.561 -124.984)" fill="#491b1d"/>
    <path id="Path_107721" data-name="Path 107721" d="M380.019,205.37h.856q.822,0,1.7-.013l.024.027-.21,1.127-.182.027-.216-.822h-1.31v1.8h.183q.295,0,.632-.007a.116.116,0,0,0,.115-.091l.122-.464.223-.01q-.011.491-.01.734t.01.724l-.223.017-.126-.477a.111.111,0,0,0-.1-.095q-.345-.006-.643-.007h-.179V209q0,.372.007.737h1.353l.426-.89.206-.03-.081,1.265-.024.024q-.842-.011-1.64-.011h-.9q-.436,0-.9.011l-.017-.169.453-.125a.113.113,0,0,0,.092-.105c0-.09,0-.191,0-.3s0-.235,0-.37v-2.7q0-.169,0-.308c0-.093,0-.177,0-.254a.11.11,0,0,0-.081-.112l-.453-.132-.01-.172q.474.013.9.013" transform="translate(-230.739 -124.984)" fill="#491b1d"/>
    <path id="Path_107722" data-name="Path 107722" d="M392.109,205.556a1.283,1.283,0,0,0-.47-.085.91.91,0,0,0-.607.21.727.727,0,0,0-.168.883.92.92,0,0,0,.216.254,1.664,1.664,0,0,0,.309.2q.174.088.361.176.206.1.415.214a1.76,1.76,0,0,1,.376.277,1.265,1.265,0,0,1,.269.384,1.408,1.408,0,0,1-.414,1.62,2.207,2.207,0,0,1-1.367.392,3.9,3.9,0,0,1-1.207-.193l-.02-.031.179-1.218.211-.034.253,1.035a1.283,1.283,0,0,0,.541.112,1.047,1.047,0,0,0,.692-.218.721.721,0,0,0,.262-.584.7.7,0,0,0-.081-.35.918.918,0,0,0-.219-.257,1.713,1.713,0,0,0-.315-.2q-.175-.088-.364-.176c-.138-.068-.276-.139-.413-.213a1.664,1.664,0,0,1-.369-.27,1.258,1.258,0,0,1-.263-.381,1.279,1.279,0,0,1-.1-.536,1.233,1.233,0,0,1,.494-1.029,2.035,2.035,0,0,1,1.282-.382,4.88,4.88,0,0,1,1.139.156l.02.031-.206,1.089-.186.03Z" transform="translate(-237.241 -124.863)" fill="#491b1d"/>
    <path id="Path_107723" data-name="Path 107723" d="M407,210.661l23.2.391-23.2.391Z" transform="translate(-247.711 -128.213)" fill="#491b1d"/>
    <path id="Path_107724" data-name="Path 107724" d="M59.271,211.444l-23.2-.391,23.2-.391Z" transform="translate(-21.955 -128.213)" fill="#491b1d"/>
  </g>
</svg>
