<svg id="Layer_2" data-name="Layer 2" xmlns="http://www.w3.org/2000/svg" width="24" height="24" viewBox="0 0 24 24">
  <g id="smartphone">
    <rect id="Rectangle_11" data-name="Rectangle 11" width="24" height="24" transform="translate(24) rotate(90)" fill="#2d2e49" opacity="0"/>
    <path id="Path_11" data-name="Path 11" d="M7,2H17a3,3,0,0,1,3,3V19a3,3,0,0,1-3,3H7a3,3,0,0,1-3-3V5A3,3,0,0,1,7,2ZM6,19a1,1,0,0,0,1,1H17a1,1,0,0,0,1-1V5a1,1,0,0,0-1-1H7A1,1,0,0,0,6,5Z" fill="#ababb7"/>
    <circle id="Ellipse_18" data-name="Ellipse 18" cx="1.5" cy="1.5" r="1.5" transform="translate(10.5 15)" fill="#ababb7"/>
    <path id="Path_12" data-name="Path 12" d="M9.5,6h5a1,1,0,0,1,0,2h-5a1,1,0,0,1,0-2Z" fill="#ababb7"/>
  </g>
</svg>
