<svg id="Layer_2" data-name="Layer 2" xmlns="http://www.w3.org/2000/svg" width="24" height="24" viewBox="0 0 24 24">
  <g id="email">
    <rect id="Rectangle_8" data-name="Rectangle 8" width="24" height="24" fill="#2d2e49" opacity="0"/>
    <path id="_18-account" data-name="18-account" d="M10.07,2.648a3.3,3.3,0,1,0,3.3,3.3A3.3,3.3,0,0,0,10.07,2.648ZM13.18,9.786a4.943,4.943,0,1,0-6.219,0A9.071,9.071,0,0,0,1.052,17.4a1.588,1.588,0,0,0,1.6,1.728h14.83a1.588,1.588,0,0,0,1.6-1.728A9.071,9.071,0,0,0,13.18,9.786Zm-3.109,1.1A7.416,7.416,0,0,0,2.7,17.477H17.44A7.416,7.416,0,0,0,10.07,10.886Z" transform="translate(1.885 1.437)" fill="#ababb7" stroke="#ababb7" stroke-width="0.3" fill-rule="evenodd"/>
  </g>
</svg>
