<svg id="trash-can" xmlns="http://www.w3.org/2000/svg" width="33.387" height="34.771" viewBox="0 0 33.387 34.771">
  <path id="Path_104851" data-name="Path 104851" d="M33.426,6.351c-2.982-.28-5.98-.513-8.97-.665l-.3-1.761c-.268-1.639-.6-3.677-4.335-3.677h-4.6C10.546.352,11.2,3.008,10.6,5.6c-2.818.121-6.158.478-8.984.757a.885.885,0,0,0,.173,1.762,137.275,137.275,0,0,1,27.22-.37L27.538,29.165c-.191,2.718-.286,4.081-4.372,4.081H11.878c-4.087,0-4.183-1.364-4.372-4.077l-1.142-7.7a.886.886,0,1,0-1.768.118l1.142,7.7c.2,2.814.4,5.725,6.137,5.725H23.159c5.735,0,5.939-2.911,6.136-5.727L30.769,7.9c1.009-.106,3.176.864,3.446-.555a.884.884,0,0,0-.79-.99Zm-17.7-.884c-1.1,0-2.213.024-3.324.06.458-1.965-.1-3.641,2.814-3.512h4.6c2.942-.121,2.368,1.682,2.829,3.6-2.321-.09-4.633-.151-6.924-.151Z" transform="translate(-0.836 -0.248)" fill="#fff"/>
  <path id="Path_104852" data-name="Path 104852" d="M12.349,25.364a.883.883,0,0,0,.883-.933l-.672-11.4a.886.886,0,0,0-1.768.1l.667,11.4a.883.883,0,0,0,.89.833Z" transform="translate(0.942 1.888)" fill="#fff"/>
  <path id="Path_104853" data-name="Path 104853" d="M18.887,24.53l.667-11.393a.882.882,0,0,0-1.758-.128s-.669,11.413-.673,11.419A.884.884,0,0,0,18.887,24.53Z" transform="translate(2.072 1.889)" fill="#fff"/>
</svg>
