<svg xmlns="http://www.w3.org/2000/svg" width="20.789" height="20.789" viewBox="0 0 20.789 20.789">
  <g id="Group_75313" data-name="Group 75313" transform="translate(0)">
    <g id="vuesax_twotone_truck-fast" data-name="vuesax/twotone/truck-fast" transform="translate(0 0)">
      <g id="truck-fast">
        <path id="Vector" d="M2.6,10.395H1.732A1.738,1.738,0,0,1,0,8.662V0H7.8a3.461,3.461,0,0,1,3.023,1.776" transform="translate(7.796 1.732)" fill="none" stroke="#6759ff" stroke-linecap="round" stroke-linejoin="round" stroke-width="1.5" opacity="0.4"/>
        <path id="Vector-2" data-name="Vector" d="M17.324,10.395a2.6,2.6,0,0,1-2.6,2.6H13.86a1.732,1.732,0,0,0-3.465,0H6.93a1.732,1.732,0,0,0-3.465,0H2.6a2.6,2.6,0,0,1-2.6-2.6V7.8H2.6a.869.869,0,0,0,.866-.866v-2.6A.869.869,0,0,0,2.6,3.465H1.481L2.962.875A1.747,1.747,0,0,1,4.47,0H6.064V6.063A1.738,1.738,0,0,0,7.8,7.8h.866" transform="translate(1.732 4.331)" fill="none" stroke="#6759ff" stroke-linecap="round" stroke-linejoin="round" stroke-width="1.5"/>
        <path id="Vector-3" data-name="Vector" d="M0,1.732A1.732,1.732,0,1,0,1.732,0,1.732,1.732,0,0,0,0,1.732Z" transform="translate(12.127 15.592)" fill="none" stroke="#6759ff" stroke-linecap="round" stroke-linejoin="round" stroke-width="1.5"/>
        <path id="Vector-4" data-name="Vector" d="M0,1.732A1.732,1.732,0,1,0,1.732,0,1.732,1.732,0,0,0,0,1.732Z" transform="translate(5.197 15.592)" fill="none" stroke="#6759ff" stroke-linecap="round" stroke-linejoin="round" stroke-width="1.5"/>
        <path id="Vector-5" data-name="Vector" d="M0,2.6V4.331H2.6a.869.869,0,0,0,.866-.866V.866A.869.869,0,0,0,2.6,0H1.481Z" transform="translate(1.732 7.796)" fill="none" stroke="#6759ff" stroke-linecap="round" stroke-linejoin="round" stroke-width="1.5"/>
        <path id="Vector-6" data-name="Vector" d="M5.2,0H0" transform="translate(13.86 6.93)" fill="none" stroke="#f5a14d" stroke-linecap="round" stroke-linejoin="round" stroke-width="1.5"/>
        <path id="Vector-7" data-name="Vector" d="M3.465,0H0" transform="translate(15.592 9.528)" fill="none" stroke="#f5a14d" stroke-linecap="round" stroke-linejoin="round" stroke-width="1.5"/>
        <path id="Vector-8" data-name="Vector" d="M1.732,0H0" transform="translate(17.324 12.127)" fill="none" stroke="#f5a14d" stroke-linecap="round" stroke-linejoin="round" stroke-width="1.5"/>
        <path id="Vector-9" data-name="Vector" d="M20.789,0H0V20.789H20.789Z" fill="none" opacity="0"/>
      </g>
    </g>
  </g>
</svg>
